<?xml version="1.0" encoding="UTF-8"?>
<svg version="1.1" xmlns="http://www.w3.org/2000/svg" width="319" height="251">
<path d="M0 0 C105.27 0 210.54 0 319 0 C319 82.83 319 165.66 319 251 C213.73 251 108.46 251 0 251 C0 168.17 0 85.34 0 0 Z " fill="#FCFCFC" transform="translate(0,0)"/>
<path d="M0 0 C3.84588005 3.20490004 6.6373837 6.23093007 7.30078125 11.296875 C7.3486577 21.31901131 4.72842417 27.21581203 -2.21875 34.53515625 C-11.27247768 42.55889525 -22.76416404 48 -35 48 C-35 48.66 -35 49.32 -35 50 C-33.700625 50.2784375 -33.700625 50.2784375 -32.375 50.5625 C-28.00920711 52.42200438 -25.65222352 55.12101511 -23 59 C-20.54972455 66.35082636 -22.21497337 72.98770081 -25 80 C-22.64365495 79.57240071 -20.29042279 79.13324692 -17.9375 78.6875 C-17.28072266 78.56955078 -16.62394531 78.45160156 -15.94726562 78.33007812 C-7.91026066 76.83417198 -7.91026066 76.83417198 -1.46875 72.2109375 C-1.1490625 71.60507813 -0.829375 70.99921875 -0.5 70.375 C1.54215971 67.13076635 1.74473892 67.06276912 5.8125 66.0625 C6.864375 66.041875 7.91625 66.02125 9 66 C10.29225249 69.44600664 10.0139155 70.96355463 8.6875 74.4375 C6.07543687 79.26474034 2.77984917 83.66398313 -0.4699707 88.07592773 C-2.58470482 90.95316882 -4.5564213 93.72356294 -6 97 C2.23092642 94.43679081 8.98270678 90.98193754 16 86 C17.02867188 85.29206299 17.02867188 85.29206299 18.078125 84.56982422 C29.1493855 76.87959306 36.40583965 69.54852475 42.93505859 57.80419922 C45.70497083 53.11147766 49.44479 49.10260862 53 45 C53.96161248 43.84539374 54.92113473 42.68904441 55.87890625 41.53125 C71.01769641 23.35057616 71.01769641 23.35057616 81 19 C84.375 18.8125 84.375 18.8125 87 19 C87.33 19.99 87.66 20.98 88 22 C86.98828125 23.5859375 86.98828125 23.5859375 85.3125 25.375 C84.34376953 26.42880859 84.34376953 26.42880859 83.35546875 27.50390625 C82.57816406 28.32761719 81.80085937 29.15132812 81 30 C79.03721068 32.10003752 77.08003786 34.20524583 75.125 36.3125 C74.60325195 36.87461182 74.08150391 37.43672363 73.54394531 38.01586914 C69.66606235 42.21851576 65.9825733 46.53998097 62.40625 51.00390625 C60.59344153 53.26108822 58.76167453 55.49318732 56.90625 57.71484375 C41.25103447 75.52369502 41.25103447 75.52369502 33 97 C40.18290671 95.75079883 44.64229925 91.75706165 50 87 C50.85207031 86.25492187 51.70414063 85.50984375 52.58203125 84.7421875 C58.5239708 79.2109811 62.31957836 73.47729183 66.12109375 66.42578125 C67.87081133 63.23554773 69.71744795 60.2039626 71.75 57.1875 C72.28109375 56.39730469 72.8121875 55.60710937 73.359375 54.79296875 C75.22853319 52.75024587 76.26604582 52.25159088 79 52 C80.8125 53 80.8125 53 82 55 C81.76811536 58.30435606 81.48929359 61.02141281 80 64 C80.64066406 63.39671875 81.28132812 62.7934375 81.94140625 62.171875 C93.70174274 51.30539419 93.70174274 51.30539419 100.375 50.6875 C103 51 103 51 104 52 C104.45141763 56.42389279 104.02548117 59.36984734 101.98046875 63.24609375 C101.61203857 63.95306396 101.2436084 64.66003418 100.86401367 65.38842773 C100.57888916 65.92024658 100.29376465 66.45206543 100 67 C100.97839844 66.13117188 101.95679688 65.26234375 102.96484375 64.3671875 C120.95628302 48.49806278 120.95628302 48.49806278 127.4375 47.4375 C130 48 130 48 132 51 C131.7615576 56.4197312 130.21894916 59.9145115 127.3125 64.4375 C126.95526855 64.99953125 126.59803711 65.5615625 126.22998047 66.140625 C123.75463557 69.98796767 121.11318485 73.67094599 118.2265625 77.21875 C116.74980397 79.363342 115.89329008 81.56223642 115 84 C122.943403 80.29412104 128.95186803 75.68533744 135.19921875 69.6796875 C137.56855729 67.41278898 139.98464353 65.28751932 142.5 63.1875 C145.67328416 60.44427078 147.71788865 57.53359176 150 54 C154.42159798 49.01235204 158.58621918 44.31861954 165.515625 43.671875 C166.74796875 43.69765625 167.9803125 43.7234375 169.25 43.75 C171.11398437 43.77320312 171.11398437 43.77320312 173.015625 43.796875 C176 44 176 44 177 45 C177.55321689 49.48806941 176.27960538 51.50111178 173.5625 55 C170.91139974 58.42768519 169.72240793 60.74793614 169 65 C176.64738329 62.43539034 182.40860612 58.83896138 188.625 53.75 C189.43839844 53.1003125 190.25179688 52.450625 191.08984375 51.78125 C193.06882485 50.19806512 195.03829772 48.60450445 197 47 C197.33 47.99 197.66 48.98 198 50 C195.3380013 52.06857971 192.66956276 54.12869411 190 56.1875 C189.25621094 56.76564453 188.51242187 57.34378906 187.74609375 57.93945312 C175.08129413 67.68584239 175.08129413 67.68584239 169.6875 68.5 C167 68 167 68 165.125 66.875 C163.5317901 64.21965017 163.79785968 62.03210482 164 59 C163.319375 59.7425 162.63875 60.485 161.9375 61.25 C158.88564426 64.27591929 155.91039035 66.18446162 152 68 C149.0625 67.75 149.0625 67.75 147 67 C146.67 66.01 146.34 65.02 146 64 C145.34 64 144.68 64 144 64 C143.67 64.99 143.34 65.98 143 67 C136.84019073 73.70653791 123.75858786 85.58119361 114.5625 86.25 C111 86 111 86 109.0625 84.875 C107.50804864 82.13185055 107.75858712 80.12327913 108 77 C111.82086873 68.22797339 118.13683298 60.49847211 124 53 C120.02389811 54.72363038 116.75418499 57.33727909 113.375 60 C112.75544434 60.48694336 112.13588867 60.97388672 111.49755859 61.47558594 C106.76384232 65.25815208 102.47626665 69.34697096 98.25 73.69140625 C96.0860169 75.91174307 93.89726102 78.07814004 91.625 80.1875 C90.71621094 81.04408203 90.71621094 81.04408203 89.7890625 81.91796875 C88 83 88 83 85.7734375 82.67578125 C84.89558594 82.34126953 84.89558594 82.34126953 84 82 C83.27463698 75.9898493 85.61355453 72.67119362 88.8125 67.875 C89.26431641 67.17246094 89.71613281 66.46992188 90.18164062 65.74609375 C91.98198628 62.96541389 93.80149062 60.25759462 95.82421875 57.6328125 C97.19478529 56.06485049 97.19478529 56.06485049 97 54 C87.5800854 60.70263154 78.89634008 68.41707854 71.4609375 77.28515625 C69.44065112 79.65656192 67.20172432 81.79827568 65 84 C64.34 84.99 63.68 85.98 63 87 C62.34 87 61.68 87 61 87 C60.67 85.35 60.34 83.7 60 82 C59.53851563 82.4125 59.07703125 82.825 58.6015625 83.25 C40.45406824 99.3173467 40.45406824 99.3173467 33.3125 99.1875 C32.52488281 99.18105469 31.73726563 99.17460937 30.92578125 99.16796875 C29 99 29 99 28 98 C27.87330358 95.94044652 27.82415771 93.87591382 27.8125 91.8125 C27.79832031 90.68457031 27.78414063 89.55664062 27.76953125 88.39453125 C28.00401519 84.94086099 28.76412878 82.21912702 30 79 C28.54980469 80.08667969 28.54980469 80.08667969 27.0703125 81.1953125 C19.91096057 86.52474513 12.77367366 91.59020694 5 96 C4.16984375 96.54011719 3.3396875 97.08023438 2.484375 97.63671875 C-1.28995087 99.7078504 -3.73672275 99.34381268 -8 99 C-11 97 -11 97 -11.46875 95.15234375 C-11.56078287 88.62951411 -9.56888272 84.39156211 -6 79 C-7.00160156 79.2165625 -8.00320312 79.433125 -9.03515625 79.65625 C-10.37752737 79.93786632 -11.71997971 80.21909566 -13.0625 80.5 C-13.71927734 80.64308594 -14.37605469 80.78617187 -15.05273438 80.93359375 C-19.43139988 81.83952455 -23.50418704 82.14031146 -28 82 C-28.38671875 82.88558594 -28.38671875 82.88558594 -28.78125 83.7890625 C-35.26731067 95.5554418 -51.859215 101.28954397 -64 105 C-73.09456664 107.30381061 -85.36080545 109.50740585 -94 105 C-96.89550486 100.65674271 -96.77175442 97.09500833 -96 92 C-90.33706644 76.61889656 -77.06937778 62.51540806 -66.70605469 50.05322266 C-64.92481735 47.9095183 -63.15277137 45.75849256 -61.3828125 43.60546875 C-51.71152624 31.84372367 -51.71152624 31.84372367 -48.29296875 27.765625 C-40.00407997 18.46161075 -40.00407997 18.46161075 -36 7 C-34.0625 7.375 -34.0625 7.375 -32 8 C-30.33376349 11.33247301 -30.42936664 14.41071615 -31 18 C-34.45249035 27.91883497 -41.05537215 35.38023313 -48 43 C-48.87527344 43.96164063 -49.75054687 44.92328125 -50.65234375 45.9140625 C-52.32560936 47.74459961 -54.00006462 49.57405009 -55.67578125 51.40234375 C-59.30425202 55.45769344 -62.64084323 59.72149506 -66 64 C-68.16207366 66.71201363 -70.33123779 69.41833396 -72.5 72.125 C-73.55219793 73.44001248 -74.60429062 74.75510918 -75.65625 76.0703125 C-76.4296875 77.03710938 -77.203125 78.00390625 -78 79 C-77.29617187 78.7834375 -76.59234375 78.566875 -75.8671875 78.34375 C-67.93165534 76.10605425 -60.24434503 75.12559977 -52 76 C-51.01 76.99 -51.01 76.99 -50 78 C-51.17175781 78.02578125 -52.34351563 78.0515625 -53.55078125 78.078125 C-65.10859996 78.44627114 -75.84336982 79.07262693 -84.62890625 87.5 C-87.78306627 90.95070498 -88.93491227 93.02368405 -89.25 97.75 C-89.36607015 100.85086031 -89.36607015 100.85086031 -88 102 C-72.13625414 103.8845653 -57.7776206 97.47361575 -45.34765625 87.97265625 C-38.05045181 81.87557941 -32.62180973 74.4668212 -31.6875 64.75 C-32.12654644 59.48144273 -33.83623186 55.83943458 -37.82421875 52.44921875 C-39.50667915 51.23771076 -41.24948201 50.11090565 -43 49 C-42.68359375 47.09765625 -42.68359375 47.09765625 -42 45 C-38.18411352 42.97027315 -34.40415435 41.82707663 -30.25 40.6875 C-19.10741518 37.41425971 -10.28231094 31.52831508 -4.0625 21.6875 C-1.58436729 16.87119557 -0.83637361 12.32475435 -2 7 C-4.82226605 3.1294637 -7.50444938 1.43659469 -12 0 C-32.67177804 -2.21407303 -50.74101305 5.33900659 -67.0625 17.6875 C-70.24333352 20.28840255 -73.20341978 22.98263713 -76 26 C-76.55429688 26.57234375 -77.10859375 27.1446875 -77.6796875 27.734375 C-82.29151959 32.6826927 -85.25827654 37.83428088 -88 44 C-88.96714727 41.44812949 -89.13918757 40.3449431 -88.1015625 37.7734375 C-84.04165423 31.17877169 -79.42334808 25.52344344 -74 20 C-73.33484375 19.31035156 -72.6696875 18.62070313 -71.984375 17.91015625 C-55.57643051 2.09715632 -21.62504991 -13.12797725 0 0 Z " fill="#181817" transform="translate(108,65)"/>
<path d="M0 0 C0.495 1.485 0.495 1.485 1 3 C-0.01171875 4.5859375 -0.01171875 4.5859375 -1.6875 6.375 C-2.33332031 7.07753906 -2.97914063 7.78007813 -3.64453125 8.50390625 C-4.42183594 9.32761719 -5.19914062 10.15132812 -6 11 C-7.96278932 13.10003752 -9.91996214 15.20524583 -11.875 17.3125 C-12.39674805 17.87461182 -12.91849609 18.43672363 -13.45605469 19.01586914 C-17.33393765 23.21851576 -21.0174267 27.53998097 -24.59375 32.00390625 C-26.40655847 34.26108822 -28.23832547 36.49318732 -30.09375 38.71484375 C-45.74896553 56.52369502 -45.74896553 56.52369502 -54 78 C-46.81709329 76.75079883 -42.35770075 72.75706165 -37 68 C-36.14792969 67.25492187 -35.29585937 66.50984375 -34.41796875 65.7421875 C-28.4760292 60.2109811 -24.68042164 54.47729183 -20.87890625 47.42578125 C-19.12918867 44.23554773 -17.28255205 41.2039626 -15.25 38.1875 C-14.71890625 37.39730469 -14.1878125 36.60710937 -13.640625 35.79296875 C-11.77146681 33.75024587 -10.73395418 33.25159088 -8 33 C-6.1875 34 -6.1875 34 -5 36 C-5.23188464 39.30435606 -5.51070641 42.02141281 -7 45 C-6.35933594 44.39671875 -5.71867187 43.7934375 -5.05859375 43.171875 C6.70174274 32.30539419 6.70174274 32.30539419 13.375 31.6875 C16 32 16 32 17 33 C17.45141763 37.42389279 17.02548117 40.36984734 14.98046875 44.24609375 C14.61203857 44.95306396 14.2436084 45.66003418 13.86401367 46.38842773 C13.57888916 46.92024658 13.29376465 47.45206543 13 48 C13.97839844 47.13117188 14.95679688 46.26234375 15.96484375 45.3671875 C33.95628302 29.49806278 33.95628302 29.49806278 40.4375 28.4375 C43 29 43 29 45 32 C44.7615576 37.4197312 43.21894916 40.9145115 40.3125 45.4375 C39.77665283 46.28054687 39.77665283 46.28054687 39.22998047 47.140625 C36.75463557 50.98796767 34.11318485 54.67094599 31.2265625 58.21875 C29.74980397 60.363342 28.89329008 62.56223642 28 65 C35.943403 61.29412104 41.95186803 56.68533744 48.19921875 50.6796875 C50.56855729 48.41278898 52.98464353 46.28751932 55.5 44.1875 C58.67328416 41.44427078 60.71788865 38.53359176 63 35 C67.42159798 30.01235204 71.58621918 25.31861954 78.515625 24.671875 C79.74796875 24.69765625 80.9803125 24.7234375 82.25 24.75 C83.49265625 24.76546875 84.7353125 24.7809375 86.015625 24.796875 C89 25 89 25 90 26 C90.55321689 30.48806941 89.27960538 32.50111178 86.5625 36 C83.91139974 39.42768519 82.72240793 41.74793614 82 46 C89.64738329 43.43539034 95.40860612 39.83896138 101.625 34.75 C102.43839844 34.1003125 103.25179687 33.450625 104.08984375 32.78125 C106.06882485 31.19806512 108.03829772 29.60450445 110 28 C110.33 28.99 110.66 29.98 111 31 C108.3380013 33.06857971 105.66956276 35.12869411 103 37.1875 C102.25621094 37.76564453 101.51242187 38.34378906 100.74609375 38.93945312 C88.08129413 48.68584239 88.08129413 48.68584239 82.6875 49.5 C80 49 80 49 78.125 47.875 C76.5317901 45.21965017 76.79785968 43.03210482 77 40 C76.319375 40.7425 75.63875 41.485 74.9375 42.25 C71.88564426 45.27591929 68.91039035 47.18446162 65 49 C62.0625 48.75 62.0625 48.75 60 48 C59.67 47.01 59.34 46.02 59 45 C58.34 45 57.68 45 57 45 C56.67 45.99 56.34 46.98 56 48 C49.84019073 54.70653791 36.75858786 66.58119361 27.5625 67.25 C24 67 24 67 22.0625 65.875 C20.50804864 63.13185055 20.75858712 61.12327913 21 58 C24.82086873 49.22797339 31.13683298 41.49847211 37 34 C33.02389811 35.72363038 29.75418499 38.33727909 26.375 41 C25.75544434 41.48694336 25.13588867 41.97388672 24.49755859 42.47558594 C19.76384232 46.25815208 15.47626665 50.34697096 11.25 54.69140625 C9.0860169 56.91174307 6.89726102 59.07814004 4.625 61.1875 C4.01914063 61.75855469 3.41328125 62.32960937 2.7890625 62.91796875 C1 64 1 64 -1.2265625 63.67578125 C-2.10441406 63.34126953 -2.10441406 63.34126953 -3 63 C-3.72536302 56.9898493 -1.38644547 53.67119362 1.8125 48.875 C2.49022461 47.82119141 2.49022461 47.82119141 3.18164062 46.74609375 C4.98198628 43.96541389 6.80149062 41.25759462 8.82421875 38.6328125 C10.19478529 37.06485049 10.19478529 37.06485049 10 35 C0.5800854 41.70263154 -8.10365992 49.41707854 -15.5390625 58.28515625 C-17.55934888 60.65656192 -19.79827568 62.79827568 -22 65 C-22.66 65.99 -23.32 66.98 -24 68 C-24.66 68 -25.32 68 -26 68 C-26.33 66.35 -26.66 64.7 -27 63 C-27.46148437 63.4125 -27.92296875 63.825 -28.3984375 64.25 C-46.54593176 80.3173467 -46.54593176 80.3173467 -53.6875 80.1875 C-54.47511719 80.18105469 -55.26273438 80.17460937 -56.07421875 80.16796875 C-58 80 -58 80 -59 79 C-59.12669642 76.94044652 -59.17584229 74.87591382 -59.1875 72.8125 C-59.20167969 71.68457031 -59.21585938 70.55664062 -59.23046875 69.39453125 C-58.99598481 65.94086099 -58.23587122 63.21912702 -57 60 C-57.96679688 60.72445312 -58.93359375 61.44890625 -59.9296875 62.1953125 C-67.08903943 67.52474513 -74.22632634 72.59020694 -82 77 C-82.82628906 77.54269531 -83.65257813 78.08539063 -84.50390625 78.64453125 C-88.20639283 80.65511473 -90.84696014 80.21117152 -95 80 C-92.17312019 78.11541346 -89.78559405 77.11954523 -86.625 75.9375 C-80.01449736 73.21225673 -74.39703589 69.51281592 -68.70166016 65.25341797 C-66.96537463 63.97449546 -65.19625589 62.75481412 -63.41796875 61.53515625 C-55.18649514 55.70782029 -50.30097001 49.54846122 -45.28515625 40.8515625 C-42.12845212 35.39167797 -38.1192333 30.75347505 -34 26 C-33.03838752 24.84539374 -32.07886527 23.68904441 -31.12109375 22.53125 C-11.66578769 -0.83327055 -11.66578769 -0.83327055 0 0 Z " fill="#141415" transform="translate(195,84)"/>
<path d="M0 0 C16.17 0 32.34 0 49 0 C49 13.53 49 27.06 49 41 C32.83 41 16.66 41 0 41 C0 27.47 0 13.94 0 0 Z " fill="#121313" transform="translate(146,9)"/>
<path d="M0 0 C1.65 0 3.3 0 5 0 C5 29.7 5 59.4 5 90 C-58.03 90 -121.06 90 -186 90 C-186 63.93 -186 37.86 -186 11 C-184.68 11 -183.36 11 -182 11 C-181.67 35.42 -181.34 59.84 -181 85 C-91.405 85.495 -91.405 85.495 0 86 C0 57.62 0 29.24 0 0 Z " fill="#0E0F0B" transform="translate(261,149)"/>
<path d="M0 0 C1.24265625 0.01546875 2.4853125 0.0309375 3.765625 0.046875 C6.75 0.25 6.75 0.25 7.75 1.25 C8.30321689 5.73806941 7.02960538 7.75111178 4.3125 11.25 C1.66139974 14.67768519 0.47240793 16.99793614 -0.25 21.25 C7.39738329 18.68539034 13.15860612 15.08896138 19.375 10 C20.18839844 9.3503125 21.00179687 8.700625 21.83984375 8.03125 C23.81882485 6.44806512 25.78829772 4.85450445 27.75 3.25 C28.245 4.735 28.245 4.735 28.75 6.25 C26.0880013 8.31857971 23.41956276 10.37869411 20.75 12.4375 C20.00621094 13.01564453 19.26242187 13.59378906 18.49609375 14.18945312 C5.83129413 23.93584239 5.83129413 23.93584239 0.4375 24.75 C-2.25 24.25 -2.25 24.25 -4.125 23.125 C-5.7182099 20.46965017 -5.45214032 18.28210482 -5.25 15.25 C-5.930625 15.9925 -6.61125 16.735 -7.3125 17.5 C-10.36435574 20.52591929 -13.33960965 22.43446162 -17.25 24.25 C-20.1875 24 -20.1875 24 -22.25 23.25 C-22.745 21.765 -22.745 21.765 -23.25 20.25 C-23.91 20.25 -24.57 20.25 -25.25 20.25 C-25.745 21.735 -25.745 21.735 -26.25 23.25 C-32.40980927 29.95653791 -45.49141214 41.83119361 -54.6875 42.5 C-58.25 42.25 -58.25 42.25 -60.1875 41.125 C-61.74384618 38.37850674 -61.49495581 36.37789721 -61.25 33.25 C-57.82086852 25.40586173 -51.53363192 13.70365243 -43.5078125 9.9765625 C-42.76273438 9.73679687 -42.01765625 9.49703125 -41.25 9.25 C-41.25 8.59 -41.25 7.93 -41.25 7.25 C-41.91 7.25 -42.57 7.25 -43.25 7.25 C-43.25 6.59 -43.25 5.93 -43.25 5.25 C-41.6 5.25 -39.95 5.25 -38.25 5.25 C-36.450455 12.59994887 -39.48176096 17.02715107 -43.25 23.25 C-45.47497139 26.45018378 -47.86219354 29.51524193 -50.296875 32.55859375 C-52.13197521 35.08736184 -53.24612746 37.3077991 -54.25 40.25 C-46.306597 36.54412104 -40.29813197 31.93533744 -34.05078125 25.9296875 C-31.68144271 23.66278898 -29.26535647 21.53751932 -26.75 19.4375 C-23.57671584 16.69427078 -21.53211135 13.78359176 -19.25 10.25 C-13.4675396 3.72727293 -9.09242264 -0.19021805 0 0 Z " fill="#161614" transform="translate(277.25,108.75)"/>
<path d="M0 0 C0.495 1.485 0.495 1.485 1 3 C-0.01171875 4.5859375 -0.01171875 4.5859375 -1.6875 6.375 C-2.33332031 7.07753906 -2.97914063 7.78007813 -3.64453125 8.50390625 C-4.42183594 9.32761719 -5.19914062 10.15132812 -6 11 C-7.96278932 13.10003752 -9.91996214 15.20524583 -11.875 17.3125 C-12.39674805 17.87461182 -12.91849609 18.43672363 -13.45605469 19.01586914 C-17.33393765 23.21851576 -21.0174267 27.53998097 -24.59375 32.00390625 C-26.40655847 34.26108822 -28.23832547 36.49318732 -30.09375 38.71484375 C-42.40471624 53.44519766 -42.40471624 53.44519766 -52 70 C-52.66 70 -53.32 70 -54 70 C-53.67 68.02 -53.34 66.04 -53 64 C-53.66 64 -54.32 64 -55 64 C-55 62.02 -55 60.04 -55 58 C-55.66 58 -56.32 58 -57 58 C-57 57.34 -57 56.68 -57 56 C-56.27425781 55.28199219 -55.54851562 54.56398437 -54.80078125 53.82421875 C-51.71423914 50.71184784 -49.52923643 47.48937153 -47.1875 43.8125 C-43.1117549 37.57212833 -38.80960795 31.70282085 -34 26 C-33.06244087 24.86463216 -32.1249453 23.72921183 -31.1875 22.59375 C-11.66997998 -0.83357 -11.66997998 -0.83357 0 0 Z " fill="#141414" transform="translate(195,84)"/>
<path d="M0 0 C1.65 0 3.3 0 5 0 C5 29.7 5 59.4 5 90 C-58.03 90 -121.06 90 -186 90 C-186 89.67 -186 89.34 -186 89 C-133.86 88.67 -81.72 88.34 -28 88 C-34.93 87.67 -41.86 87.34 -49 87 C-49 86.67 -49 86.34 -49 86 C-32.83 86 -16.66 86 0 86 C0 57.62 0 29.24 0 0 Z " fill="#292A27" transform="translate(261,149)"/>
<path d="M0 0 C13.44845 -0.09300756 26.89682246 -0.16392064 40.34552956 -0.20724869 C46.59147188 -0.22805235 52.83719284 -0.25623752 59.08300781 -0.30175781 C65.11956306 -0.34547368 71.15590645 -0.36919131 77.19260788 -0.37950897 C79.48650824 -0.38685433 81.78039805 -0.40119708 84.07420731 -0.42292023 C102.10082565 -0.58672519 118.47873612 0.02274183 132.31640625 13.20703125 C142 23.67529926 142 23.67529926 142 30 C140.35 30 138.7 30 137 30 C136.195625 28.2365625 136.195625 28.2365625 135.375 26.4375 C130.39745744 16.63796309 122.90140376 11.21305666 112.75 7.1875 C106.07296573 5.07310581 99.80466045 4.83710549 92.86376953 4.79467773 C91.35552864 4.77982834 91.35552864 4.77982834 89.81681824 4.76467896 C86.50550664 4.73318445 83.19418072 4.70835425 79.8828125 4.68359375 C77.58209874 4.66301382 75.28138868 4.64201707 72.98068237 4.62062073 C66.93419389 4.56550743 60.8876719 4.51605085 54.84112549 4.46777344 C48.66749093 4.41747989 42.49390485 4.36183486 36.3203125 4.30664062 C24.21358312 4.19919047 12.10681158 4.09771642 0 4 C0 2.68 0 1.36 0 0 Z " fill="#3A3A39" transform="translate(123,66)"/>
<path d="M0 0 C1.26070313 0.01546875 2.52140625 0.0309375 3.8203125 0.046875 C6.875 0.25 6.875 0.25 7.875 1.25 C8.42821689 5.73806941 7.15460538 7.75111178 4.4375 11.25 C1.78639974 14.67768519 0.59740793 16.99793614 -0.125 21.25 C7.52238329 18.68539034 13.28360612 15.08896138 19.5 10 C20.31339844 9.3503125 21.12679687 8.700625 21.96484375 8.03125 C23.94382485 6.44806512 25.91329772 4.85450445 27.875 3.25 C28.37 4.735 28.37 4.735 28.875 6.25 C26.2130013 8.31857971 23.54456276 10.37869411 20.875 12.4375 C20.13121094 13.01564453 19.38742187 13.59378906 18.62109375 14.18945312 C5.95629413 23.93584239 5.95629413 23.93584239 0.5625 24.75 C-2.125 24.25 -2.125 24.25 -4 23.125 C-5.5932099 20.46965017 -5.32714032 18.28210482 -5.125 15.25 C-5.805625 15.9925 -6.48625 16.735 -7.1875 17.5 C-10.23935574 20.52591929 -13.21460965 22.43446162 -17.125 24.25 C-20.0625 24 -20.0625 24 -22.125 23.25 C-22.125 22.59 -22.125 21.93 -22.125 21.25 C-20.805 21.25 -19.485 21.25 -18.125 21.25 C-17.87878906 20.51136719 -17.63257813 19.77273437 -17.37890625 19.01171875 C-15.99750729 15.9691983 -14.48673196 14.33714233 -12.0625 12.0625 C-9.20362194 9.44582919 -9.20362194 9.44582919 -7.125 6.25 C-9.105 7.24 -9.105 7.24 -11.125 8.25 C-10.465 6.93 -9.805 5.61 -9.125 4.25 C-9.455 3.92 -9.785 3.59 -10.125 3.25 C-7.40156727 -0.5829794 -4.43171718 -0.09100035 0 0 Z " fill="#1A1B18" transform="translate(277.125,108.75)"/>
<path d="M0 0 C4.62 0 9.24 0 14 0 C14 10.56 14 21.12 14 32 C1.46 32 -11.08 32 -24 32 C-24.33 30.68 -24.66 29.36 -25 28 C-13.45 28 -1.9 28 10 28 C10.12515551 13.27393641 10.12515551 13.27393641 6 6 C4.03625365 4.61382611 2.04087808 3.26987969 0 2 C0 1.34 0 0.68 0 0 Z " fill="#F5F4F5" transform="translate(176,14)"/>
<path d="M0 0 C1.75 0.6875 1.75 0.6875 3.75 3.6875 C4.45125 3.0275 5.1525 2.3675 5.875 1.6875 C9.21043144 -0.63280013 10.77711547 -0.75393161 14.75 -0.3125 C15.41 0.0175 16.07 0.3475 16.75 0.6875 C16.42 1.6775 16.09 2.6675 15.75 3.6875 C14.80125 3.48125 13.8525 3.275 12.875 3.0625 C11.84375 2.93875 10.8125 2.815 9.75 2.6875 C7.53256395 4.48420274 7.53256395 4.48420274 7.51953125 6.9296875 C7.53371094 7.79851562 7.54789063 8.66734375 7.5625 9.5625 C7.56894531 10.42617187 7.57539063 11.28984375 7.58203125 12.1796875 C7.69432403 14.9667503 7.69432403 14.9667503 8.75 18.6875 C11.39 18.0275 14.03 17.3675 16.75 16.6875 C16.75 17.6775 16.75 18.6675 16.75 19.6875 C14.53704384 20.79397808 13.20327301 20.88338368 10.75 20.9375 C10.04875 20.96328125 9.3475 20.9890625 8.625 21.015625 C8.00625 20.90734375 7.3875 20.7990625 6.75 20.6875 C6.09 19.6975 5.43 18.7075 4.75 17.6875 C3.76 17.3575 2.77 17.0275 1.75 16.6875 C1.42 17.3475 1.09 18.0075 0.75 18.6875 C-3.48405029 21.05358693 -6.58533582 20.60214004 -11.25 19.6875 C-11.25 19.0275 -11.25 18.3675 -11.25 17.6875 C-9.27 17.6875 -7.29 17.6875 -5.25 17.6875 C-5.25 16.3675 -5.25 15.0475 -5.25 13.6875 C-6.054375 13.089375 -6.85875 12.49125 -7.6875 11.875 C-10.25 9.6875 -10.25 9.6875 -11.25 6.125 C-11.25 2.6875 -11.25 2.6875 -10.1875 0.75 C-6.85310798 -1.07853756 -3.65657371 -0.50785746 0 0 Z " fill="#E1E1DF" transform="translate(135.25,175.3125)"/>
<path d="M0 0 C0.99 0.33 1.98 0.66 3 1 C3.70381157 2.98723268 4.3711811 4.98777953 5 7 C5.66 7.33 6.32 7.66 7 8 C6.34 8.33 5.68 8.66 5 9 C4.53101037 11.8159849 4.53101037 11.8159849 4.375 15.0625 C4.30023438 16.16722656 4.22546875 17.27195313 4.1484375 18.41015625 C4.09945312 19.26480469 4.05046875 20.11945313 4 21 C14.02751811 19.25608381 21.25595639 11.14600647 28 4 C28.99 4.66 29.98 5.32 31 6 C11.6227865 23.3204143 11.6227865 23.3204143 4.3125 23.1875 C3.52488281 23.18105469 2.73726562 23.17460937 1.92578125 23.16796875 C0 23 0 23 -1 22 C-1.12669642 19.94044652 -1.17584229 17.87591382 -1.1875 15.8125 C-1.20167969 14.68457031 -1.21585938 13.55664062 -1.23046875 12.39453125 C-0.99598481 8.94086099 -0.23587122 6.21912702 1 3 C-0.45019531 4.08667969 -0.45019531 4.08667969 -1.9296875 5.1953125 C-9.08903943 10.52474513 -16.22632634 15.59020694 -24 20 C-24.82628906 20.54269531 -25.65257813 21.08539063 -26.50390625 21.64453125 C-30.20639283 23.65511473 -32.84696014 23.21117152 -37 23 C-34.17312019 21.11541346 -31.78559405 20.11954523 -28.625 18.9375 C-18.56849432 14.81518389 -10.04365887 8.11254055 -1.8046875 1.1171875 C-1.20914063 0.74851563 -0.61359375 0.37984375 0 0 Z " fill="#20201E" transform="translate(137,141)"/>
<path d="M0 0 C31.02 0 62.04 0 94 0 C94 0.33 94 0.66 94 1 C89.545 1.495 89.545 1.495 85 2 C85 2.33 85 2.66 85 3 C56.95 3 28.9 3 0 3 C0 2.01 0 1.02 0 0 Z " fill="#060606" transform="translate(123,67)"/>
<path d="M0 0 C1.01827881 -0.00821777 1.01827881 -0.00821777 2.05712891 -0.01660156 C5.67203999 0.03598556 8.36236861 0.34848479 11.4375 2.3125 C11.1075 3.3025 10.7775 4.2925 10.4375 5.3125 C9.78136719 5.15652344 9.12523438 5.00054687 8.44921875 4.83984375 C-11.05649403 1.42444657 -28.396348 7.67253261 -44.5625 18.3125 C-49.65973636 21.89834651 -54.31942146 25.73444157 -58.5625 30.3125 C-59.11679687 30.88484375 -59.67109375 31.4571875 -60.2421875 32.046875 C-64.85401959 36.9951927 -67.82077654 42.14678088 -70.5625 48.3125 C-71.52964727 45.76062949 -71.70168757 44.6574431 -70.6640625 42.0859375 C-66.60415423 35.49127169 -61.98584808 29.83594344 -56.5625 24.3125 C-55.89734375 23.62285156 -55.2321875 22.93320313 -54.546875 22.22265625 C-40.4125792 8.60086354 -19.50787847 0.11556273 0 0 Z " fill="#2F2F2E" transform="translate(90.5625,60.6875)"/>
<path d="M0 0 C1.43352212 0.00015908 2.86704998 0.00585132 4.30053711 0.01586914 C5.43041298 0.01799156 5.43041298 0.01799156 6.58311462 0.02015686 C8.99807646 0.02577163 11.41294687 0.03832656 13.82788086 0.05102539 C15.46134307 0.05603849 17.09480672 0.06060173 18.72827148 0.06469727 C22.74067671 0.07574585 26.75301326 0.09302033 30.76538086 0.11352539 C31.26038086 2.58852539 31.26038086 2.58852539 31.76538086 5.11352539 C28.75325056 6.61959054 25.65255464 6.2351287 22.35131836 6.21118164 C21.62167877 6.20976669 20.89203918 6.20835175 20.14028931 6.20689392 C17.80694501 6.2012907 15.47369622 6.18873774 13.14038086 6.17602539 C11.55965308 6.1710108 9.97892379 6.16644782 8.39819336 6.16235352 C4.52055232 6.15132023 0.64298279 6.1340535 -3.23461914 6.11352539 C-3.61680681 4.45737882 -3.94857016 2.78895515 -4.23461914 1.11352539 C-3.23461914 0.11352539 -3.23461914 0.11352539 0 0 Z " fill="#0F0F0D" transform="translate(156.234619140625,54.886474609375)"/>
<path d="M0 0 C-1.32 0.33 -2.64 0.66 -4 1 C-4 1.66 -4 2.32 -4 3 C-3.34 3 -2.68 3 -2 3 C-2 3.66 -2 4.32 -2 5 C-3.32 5.33 -4.64 5.66 -6 6 C-6 5.34 -6 4.68 -6 4 C-15.26517927 10.95614556 -24.04555033 18.18228289 -32.3671875 26.265625 C-32.94855469 26.8220166 -33.52992188 27.3784082 -34.12890625 27.95166016 C-35.27483636 29.04984318 -36.4106981 30.15864984 -37.53515625 31.27880859 C-39.1171875 32.7890625 -39.1171875 32.7890625 -42 35 C-44.3828125 34.8359375 -44.3828125 34.8359375 -46 34 C-46.5497272 28.36529617 -44.95047835 25.61012242 -42 21 C-40.95550089 24.13349732 -41.06576355 24.98968256 -42 28 C-41.34 28 -40.68 28 -40 28 C-39.195625 26.329375 -39.195625 26.329375 -38.375 24.625 C-37.4609375 22.7265625 -37.4609375 22.7265625 -36 21 C-34.66775391 20.58621094 -34.66775391 20.58621094 -33.30859375 20.1640625 C-28.85141342 18.5958928 -26.12630007 15.91246399 -22.6875 12.75 C-7.12791582 -1.09660243 -7.12791582 -1.09660243 0 0 Z " fill="#1D1D1B" transform="translate(238,113)"/>
<path d="M0 0 C15.84 0 31.68 0 48 0 C48 0.33 48 0.66 48 1 C46.02 1.33 44.04 1.66 42 2 C41.67 2.99 41.34 3.98 41 5 C29.78 5 18.56 5 7 5 C6.67 4.01 6.34 3.02 6 2 C3.03 1.505 3.03 1.505 0 1 C0 0.67 0 0.34 0 0 Z " fill="#DBDBD9" transform="translate(146,50)"/>
<path d="M0 0 C0.33 0.66 0.66 1.32 1 2 C1.66 2 2.32 2 3 2 C3.02526838 8.96003447 3.04283222 15.9200572 3.05493164 22.88012695 C3.05997341 25.24992312 3.06680665 27.61971615 3.07543945 29.98950195 C3.0875119 33.38754039 3.09322971 36.78553785 3.09765625 40.18359375 C3.10281754 41.25024765 3.10797882 42.31690155 3.11329651 43.4158783 C3.11337204 44.39681961 3.11344757 45.37776093 3.11352539 46.38842773 C3.115746 47.25668686 3.11796661 48.12494598 3.12025452 49.01951599 C3 51 3 51 2 52 C1.84019563 54.44608998 1.74070553 56.86731058 1.68359375 59.31640625 C1.66281265 60.04746078 1.64203156 60.77851532 1.62062073 61.53172302 C1.55504976 63.87521656 1.49620568 66.21882539 1.4375 68.5625 C1.39432192 70.14779855 1.35070787 71.73308529 1.30664062 73.31835938 C1.1993608 77.21212037 1.0981151 81.10599772 1 85 C0.67 85 0.34 85 0 85 C0 56.95 0 28.9 0 0 Z " fill="#1B1B19" transform="translate(261,149)"/>
<path d="M0 0 C9.3000702 4.79238311 15.40305075 11.52808104 19.921875 20.99609375 C19.921875 21.98609375 19.921875 22.97609375 19.921875 23.99609375 C18.271875 23.99609375 16.621875 23.99609375 14.921875 23.99609375 C14.385625 22.82046875 13.849375 21.64484375 13.296875 20.43359375 C8.18020867 10.36015692 0.39242916 4.9715448 -10.078125 0.99609375 C-10.078125 0.00609375 -10.078125 -0.98390625 -10.078125 -2.00390625 C-5.82031661 -3.42317571 -3.91883576 -1.89312178 0 0 Z " fill="#121211" transform="translate(245.078125,72.00390625)"/>
<path d="M0 0 C0.66 0.33 1.32 0.66 2 1 C0.75023244 4.65316671 0.32901247 5.78065836 -3 8 C-3.515625 8.86625 -4.03125 9.7325 -4.5625 10.625 C-5.036875 11.40875 -5.51125 12.1925 -6 13 C-6.66 13 -7.32 13 -8 13 C-8 14.65 -8 16.3 -8 18 C-4.02245872 18.73334429 -4.02245872 18.73334429 0 19 C0 18.01 0 17.02 0 16 C0.66 16 1.32 16 2 16 C2.33 16.99 2.66 17.98 3 19 C-8.07840617 28.83290488 -8.07840617 28.83290488 -12.875 29.25 C-13.57625 29.1675 -14.2775 29.085 -15 29 C-15.44880512 23.81118294 -14.07463654 20.52148259 -11.4375 16.1875 C-11.07978516 15.58019043 -10.72207031 14.97288086 -10.35351562 14.34716797 C-7.29366673 9.25416551 -3.84003954 4.53604671 0 0 Z " fill="#F6F6F4" transform="translate(156,133)"/>
<path d="M0 0 C3.92439071 1.96219536 4.65807617 2.48763407 6.75 6 C7.17796875 6.70125 7.6059375 7.4025 8.046875 8.125 C9 10 9 10 9 12 C9.66 12 10.32 12 11 12 C11 8.04 11 4.08 11 0 C11.66 0 12.32 0 13 0 C13 6.93 13 13.86 13 21 C12.01 21 11.02 21 10 21 C9.57847656 20.21753906 9.15695313 19.43507812 8.72265625 18.62890625 C8.17480469 17.61699219 7.62695312 16.60507813 7.0625 15.5625 C6.24458984 14.04849609 6.24458984 14.04849609 5.41015625 12.50390625 C4.22300532 10.13329507 4.22300532 10.13329507 3 9 C2.67 12.96 2.34 16.92 2 21 C1.34 21 0.68 21 0 21 C0 14.07 0 7.14 0 0 Z " fill="#40403E" transform="translate(174,175)"/>
<path d="M0 0 C1.00821159 2.68856424 1.22736824 4.41703215 0.17578125 7.11328125 C-0.83395302 9.10794931 -1.88106647 11.0646772 -3 13 C-4.32 12.67 -5.64 12.34 -7 12 C-7 10.68 -7 9.36 -7 8 C-7.99 8.495 -7.99 8.495 -9 9 C-9.33 9.99 -9.66 10.98 -10 12 C-11.95597184 13.39712274 -13.95436401 14.73779907 -16 16 C-15.67 15.01 -15.34 14.02 -15 13 C-15.84304687 13.16757813 -16.68609375 13.33515625 -17.5546875 13.5078125 C-18.65039062 13.71148437 -19.74609375 13.91515625 -20.875 14.125 C-21.96554688 14.33382812 -23.05609375 14.54265625 -24.1796875 14.7578125 C-25.57574219 14.87769531 -25.57574219 14.87769531 -27 15 C-27.66 14.34 -28.32 13.68 -29 13 C-28.35933594 12.89042969 -27.71867187 12.78085938 -27.05859375 12.66796875 C-16.78268064 10.95283551 -16.78268064 10.95283551 -9.1875 4.375 C-8.80980469 3.76398438 -8.43210937 3.15296875 -8.04296875 2.5234375 C-5.93982991 -0.54856305 -3.43182534 -0.09031119 0 0 Z " fill="#1C1C1C" transform="translate(117,131)"/>
<path d="M0 0 C0.99 0 1.98 0 3 0 C3 0.66 3 1.32 3 2 C3.66 2.33 4.32 2.66 5 3 C4.01 3.495 4.01 3.495 3 4 C2.34 3.67 1.68 3.34 1 3 C1 3.66 1 4.32 1 5 C1.99 5.33 2.98 5.66 4 6 C3.58181281 10.87885059 1.55070071 12.77959703 -2 16 C-2.70125 16.70125 -3.4025 17.4025 -4.125 18.125 C-4.74375 18.74375 -5.3625 19.3625 -6 20 C-6.53625 20.5775 -7.0725 21.155 -7.625 21.75 C-9 23 -9 23 -11 23 C-9.33589172 14.19409367 -5.9035707 6.82005245 0 0 Z " fill="#141412" transform="translate(206,119)"/>
<path d="M0 0 C0 0.99 0 1.98 0 3 C-0.33 3.33 -0.66 3.66 -1 4 C-0.34 4 0.32 4 1 4 C-0.50232109 7.44511328 -2.52405659 9.87002875 -5.0625 12.625 C-7.85780458 15.58789167 -7.85780458 15.58789167 -10 19 C-12.5625 19.625 -12.5625 19.625 -15 20 C-15 19.34 -15 18.68 -15 18 C-15.99 18.33 -16.98 18.66 -18 19 C-14.72315508 12.04443295 -9.71393016 6.0928508 -4 1 C-1.8203125 0.33984375 -1.8203125 0.33984375 0 0 Z " fill="#1E1E1E" transform="translate(269,111)"/>
<path d="M0 0 C3.63 0 7.26 0 11 0 C11 0.66 11 1.32 11 2 C8.69 2 6.38 2 4 2 C4 4.31 4 6.62 4 9 C5.98 9 7.96 9 10 9 C10 9.66 10 10.32 10 11 C8.02 11 6.04 11 4 11 C4 13.64 4 16.28 4 19 C6.31 19 8.62 19 11 19 C11 19.66 11 20.32 11 21 C7.37 21 3.74 21 0 21 C0 14.07 0 7.14 0 0 Z " fill="#2C2C2B" transform="translate(157,175)"/>
<path d="M0 0 C0.66 0.66 1.32 1.32 2 2 C-18.55072739 21.60368926 -18.55072739 21.60368926 -27.4375 22.25 C-31 22 -31 22 -32.9375 20.875 C-34.51108304 18.09808875 -34.38420899 16.13770673 -34 13 C-32.5 10.625 -32.5 10.625 -31 9 C-30.67 10.98 -30.34 12.96 -30 15 C-29.01 15.33 -28.02 15.66 -27 16 C-27 17.32 -27 18.64 -27 20 C-18.97726942 16.25711191 -12.92676567 11.57041645 -6.62890625 5.48828125 C-4.49557615 3.46906687 -2.39322152 1.69166249 0 0 Z " fill="#212121" transform="translate(250,129)"/>
<path d="M0 0 C0.94875 0.04125 1.8975 0.0825 2.875 0.125 C3.205 1.445 3.535 2.765 3.875 4.125 C3.215 4.125 2.555 4.125 1.875 4.125 C1.875 3.465 1.875 2.805 1.875 2.125 C0.885 2.455 -0.105 2.785 -1.125 3.125 C-1.00443404 5.49039052 -1.00443404 5.49039052 -0.125 8.125 C1.174375 9.053125 1.174375 9.053125 2.5 10 C3.28375 10.70125 4.0675 11.4025 4.875 12.125 C4.80613135 16.11938174 4.7435771 18.2564229 1.875 21.125 C-1.75 21.25 -1.75 21.25 -5.125 21.125 C-5.455 19.805 -5.785 18.485 -6.125 17.125 C-4.145 17.455 -2.165 17.785 -0.125 18.125 C-0.24556596 15.75960948 -0.24556596 15.75960948 -1.125 13.125 C-2.424375 12.196875 -2.424375 12.196875 -3.75 11.25 C-4.53375 10.54875 -5.3175 9.8475 -6.125 9.125 C-6.03546712 3.93209281 -5.83784655 0.23351386 0 0 Z " fill="#2B2B2A" transform="translate(215.125,174.875)"/>
<path d="M0 0 C2 3 2 3 2 6 C3.31267956 7.72943475 3.31267956 7.72943475 5 9 C5.66 9 6.32 9 7 9 C5.57183465 12.59344829 4.00386022 13.93147722 0.625 15.75 C-0.14585937 16.17796875 -0.91671875 16.6059375 -1.7109375 17.046875 C-4 18 -4 18 -8 18 C-7.75793258 12.19038192 -6.07768351 9.24721576 -2.375 4.796875 C-0.7989604 2.93918937 -0.7989604 2.93918937 0 0 Z " fill="#F1F1EF" transform="translate(285,112)"/>
<path d="M0 0 C4.62 0 9.24 0 14 0 C14 0.66 14 1.32 14 2 C12.35 2 10.7 2 9 2 C9 8.27 9 14.54 9 21 C7.68 21 6.36 21 5 21 C5 15.06 5 9.12 5 3 C3.35 3 1.7 3 0 3 C0 2.01 0 1.02 0 0 Z " fill="#222321" transform="translate(192,175)"/>
<path d="M0 0 C0.66 0.33 1.32 0.66 2 1 C1.67 1.99 1.34 2.98 1 4 C0.05125 3.79375 -0.8975 3.5875 -1.875 3.375 C-2.90625 3.25125 -3.9375 3.1275 -5 3 C-7.21743605 4.79670274 -7.21743605 4.79670274 -7.23046875 7.2421875 C-7.21628906 8.11101562 -7.20210937 8.97984375 -7.1875 9.875 C-7.18105469 10.73867187 -7.17460937 11.60234375 -7.16796875 12.4921875 C-7.05567597 15.2792503 -7.05567597 15.2792503 -6 19 C-3.36 18.34 -0.72 17.68 2 17 C2 17.99 2 18.98 2 20 C-1.23759573 21.61879787 -4.51137221 21.70324117 -8 21 C-11.31175177 17.77104202 -12.2589892 14.94138928 -12.5 10.4375 C-12.31406188 6.19668064 -11.14406001 3.95911531 -8 1 C-5.26094655 -0.36952673 -3.02912668 -0.12621361 0 0 Z " fill="#252523" transform="translate(150,175)"/>
<path d="M0 0 C0.33 0 0.66 0 1 0 C1 13.53 1 27.06 1 41 C0.67 41 0.34 41 0 41 C0 32.09 0 23.18 0 14 C-0.99 14.33 -1.98 14.66 -3 15 C-4.60725635 11.78548731 -4.05748185 8.56387464 -4 5 C-6.31 5 -8.62 5 -11 5 C-11 3.68 -11 2.36 -11 1 C-10.030625 1.165 -9.06125 1.33 -8.0625 1.5 C-6.04016429 1.85992293 -6.04016429 1.85992293 -4 2 C-2.68 2 -1.36 2 0 2 C0 1.34 0 0.68 0 0 Z " fill="#191919" transform="translate(194,9)"/>
<path d="M0 0 C11.55 0 23.1 0 35 0 C35 0.66 35 1.32 35 2 C31.98786971 3.50606515 28.88717378 3.12160331 25.5859375 3.09765625 C24.85629791 3.0962413 24.12665833 3.09482635 23.37490845 3.09336853 C21.04156415 3.08776531 18.70831536 3.07521235 16.375 3.0625 C14.79427222 3.05748541 13.21354293 3.05292243 11.6328125 3.04882812 C7.75517146 3.03779484 3.87760193 3.02052811 0 3 C0 2.01 0 1.02 0 0 Z " fill="#FCFDFC" transform="translate(151,42)"/>
<path d="M0 0 C3 2 3 2 3.8125 5.6875 C3.73033446 8.89782486 3.20237915 9.8024394 0.8671875 12.08203125 C-6.00394603 17 -6.00394603 17 -10 17 C-9.51814387 12.2778099 -7.30336567 9.29945628 -4.4375 5.6875 C-4.01275391 5.13771484 -3.58800781 4.58792969 -3.15039062 4.02148438 C-2.10818741 2.6748173 -1.05516157 1.33653799 0 0 Z " fill="#E7E8E4" transform="translate(233,132)"/>
<path d="M0 0 C0.33 1.32 0.66 2.64 1 4 C0.34 4 -0.32 4 -1 4 C-1 3.01 -1 2.02 -1 1 C-1.99 1.33 -2.98 1.66 -4 2 C-4 3.32 -4 4.64 -4 6 C-3.01 6.598125 -2.02 7.19625 -1 7.8125 C2 10 2 10 2.5625 13.5625 C2 17 2 17 0.9375 19 C-2.13335213 20.58495594 -4.72186775 19.68036707 -8 19 C-8 18.34 -8 17.68 -8 17 C-6.02 17 -4.04 17 -2 17 C-2 15.68 -2 14.36 -2 13 C-2.804375 12.401875 -3.60875 11.80375 -4.4375 11.1875 C-7 9 -7 9 -8 5.4375 C-8 2 -8 2 -6.875 0 C-4.28103624 -1.38344734 -2.74857743 -0.81714464 0 0 Z " fill="#1F1F1E" transform="translate(132,176)"/>
<path d="M0 0 C0.33 0.66 0.66 1.32 1 2 C-0.76763502 4.43987652 -2.53894288 6.87693417 -4.3125 9.3125 C-4.81201172 10.00279297 -5.31152344 10.69308594 -5.82617188 11.40429688 C-6.31279297 12.07138672 -6.79941406 12.73847656 -7.30078125 13.42578125 C-7.74591064 14.03848877 -8.19104004 14.65119629 -8.6496582 15.2824707 C-9.99426851 16.99270999 -11.4310887 18.49553692 -13 20 C-13.66 18.02 -14.32 16.04 -15 14 C-15.99 14 -16.98 14 -18 14 C-15.37748931 11.85110957 -12.75157805 9.70641627 -10.125 7.5625 C-9.00544922 6.64500977 -9.00544922 6.64500977 -7.86328125 5.70898438 C-7.14785156 5.12568359 -6.43242187 4.54238281 -5.6953125 3.94140625 C-5.03547363 3.40201416 -4.37563477 2.86262207 -3.69580078 2.30688477 C-2 1 -2 1 0 0 Z " fill="#EEEEEB" transform="translate(232,116)"/>
<path d="M0 0 C0.33 0.99 0.66 1.98 1 3 C-0.40333195 5.35255857 -1.82161123 7.49093839 -3.4375 9.6875 C-3.87126953 10.29400391 -4.30503906 10.90050781 -4.75195312 11.52539062 C-5.82544245 13.02355704 -6.91155165 14.5126661 -8 16 C-8.61875 15.67 -9.2375 15.34 -9.875 15 C-11.91018344 13.85806765 -11.91018344 13.85806765 -14 14 C-14.99 14 -15.98 14 -17 14 C-15.10907094 12.2236727 -13.21261247 10.4539586 -11.3125 8.6875 C-10.51682617 7.93823242 -10.51682617 7.93823242 -9.70507812 7.17382812 C-6.64834171 4.34212752 -3.68790233 2.00474097 0 0 Z " fill="#F8F8F6" transform="translate(205,118)"/>
<path d="M0 0 C0.66 0.33 1.32 0.66 2 1 C2 2.98 2 4.96 2 7 C1.34 7 0.68 7 0 7 C-0.33 8.98 -0.66 10.96 -1 13 C-1.61875 13.103125 -2.2375 13.20625 -2.875 13.3125 C-5.36526484 13.87525373 -5.36526484 13.87525373 -7 17 C-6.67 17.66 -6.34 18.32 -6 19 C-6.99 19.33 -7.98 19.66 -9 20 C-9.66 19.67 -10.32 19.34 -11 19 C-10.0995589 14.68813643 -7.89921069 11.44102762 -5.5 7.8125 C-5.08363281 7.17119141 -4.66726562 6.52988281 -4.23828125 5.86914062 C-1.17484328 1.17484328 -1.17484328 1.17484328 0 0 Z " fill="#1B1B1B" transform="translate(154,119)"/>
<path d="M0 0 C0.33 0 0.66 0 1 0 C1.495 3.465 1.495 3.465 2 7 C2.66 6.01 3.32 5.02 4 4 C4 8.62 4 13.24 4 18 C-8.54 18 -21.08 18 -34 18 C-34 17.67 -34 17.34 -34 17 C-22.78 16.67 -11.56 16.34 0 16 C0 10.72 0 5.44 0 0 Z " fill="#C4C5C3" transform="translate(186,28)"/>
<path d="M0 0 C0.99 0.33 1.98 0.66 3 1 C1.6291998 3.74160039 -0.48299004 4.44075866 -3.08789062 5.87597656 C-6.02711217 7.60378248 -8.59956793 9.73733996 -11.25 11.875 C-26.9014062 24.14323703 -26.9014062 24.14323703 -37 23 C-34.17312019 21.11541346 -31.78559405 20.11954523 -28.625 18.9375 C-18.56849432 14.81518389 -10.04365887 8.11254055 -1.8046875 1.1171875 C-1.20914063 0.74851563 -0.61359375 0.37984375 0 0 Z " fill="#2B2B2A" transform="translate(137,141)"/>
<path d="M0 0 C-2.834056 8.26599667 -8.72169579 12.60004955 -16 17 C-16.66 17 -17.32 17 -18 17 C-15.82155578 10.60915598 -7.54507252 0 0 0 Z " fill="#EFF0EB" transform="translate(277,113)"/>
<path d="M0 0 C0.33 1.32 0.66 2.64 1 4 C1.99 4 2.98 4 4 4 C4.66 4 5.32 4 6 4 C5.32798333 7.80809447 4.246706 11.34299574 3 15 C3 15.33 3 15.66 3 16 C1.33388095 16.042721 -0.33382885 16.04063832 -2 16 C-3.55090815 14.44909185 -3.20677311 12.96303767 -3.25 10.8125 C-3.22267577 6.5362574 -2.2681142 3.68568558 0 0 Z " fill="#1D1D1D" transform="translate(100,147)"/>
<path d="M0 0 C0.66 0.99 1.32 1.98 2 3 C2.66 3 3.32 3 4 3 C6 6 6 6 5.9375 7.8125 C4.5375248 11.0791088 2.35411406 13.34407644 0 16 C-0.93065133 13.39417629 -1.14917407 12.35801776 -0.0625 9.75 C0.288125 9.1725 0.63875 8.595 1 8 C-0.65 8 -2.3 8 -4 8 C-4.66 9.65 -5.32 11.3 -6 13 C-6.66 12.67 -7.32 12.34 -8 12 C-7.41463247 8.33939179 -5.916761 6.45464836 -3.4375 3.75 C-2.79683594 3.04359375 -2.15617187 2.3371875 -1.49609375 1.609375 C-0.75552734 0.81273438 -0.75552734 0.81273438 0 0 Z " fill="#1C1C1D" transform="translate(62,90)"/>
<path d="M0 0 C1 1 1 1 1.1875 4.4375 C1 8 1 8 -1 10 C-1.99 9.34 -2.98 8.68 -4 8 C-4 7.34 -4 6.68 -4 6 C-3.01 6 -2.02 6 -1 6 C-1.33 5.01 -1.66 4.02 -2 3 C-7.01421269 3.45384115 -9.4526048 4.8012328 -13.1875 8.125 C-15.73046875 10.3828125 -15.73046875 10.3828125 -18 12 C-18.99 11.67 -19.98 11.34 -21 11 C-19.25395451 9.5369343 -17.50300547 8.0797192 -15.75 6.625 C-14.77546875 5.81289062 -13.8009375 5.00078125 -12.796875 4.1640625 C-8.32738771 0.70582792 -5.70544658 -0.38036311 0 0 Z " fill="#21211F" transform="translate(211,116)"/>
<path d="M0 0 C4.18784715 2.09392358 4.73344901 2.70392863 6.75 6.625 C7.17796875 7.44226563 7.6059375 8.25953125 8.046875 9.1015625 C8.51867187 10.04128906 8.51867187 10.04128906 9 11 C8.01 11 7.02 11 6 11 C5.34 10.34 4.68 9.68 4 9 C3.67 9 3.34 9 3 9 C2.67 12.96 2.34 16.92 2 21 C1.34 21 0.68 21 0 21 C0 14.07 0 7.14 0 0 Z " fill="#343432" transform="translate(174,175)"/>
<path d="M0 0 C1.9375 0.8125 1.9375 0.8125 3.9375 2.8125 C3.74840096 6.27931577 3.60158235 8.87674759 1.5625 11.75 C-0.0625 12.8125 -0.0625 12.8125 -3.0625 12.8125 C-3.3925 11.1625 -3.7225 9.5125 -4.0625 7.8125 C-3.0725 7.4825 -2.0825 7.1525 -1.0625 6.8125 C-2.02115509 4.48174071 -2.02115509 4.48174071 -5.0625 2.8125 C-2.62182203 -0.23834746 -2.62182203 -0.23834746 0 0 Z " fill="#111112" transform="translate(186.0625,117.1875)"/>
<path d="M0 0 C0.70705078 -0.01224609 1.41410156 -0.02449219 2.14257812 -0.03710938 C5.90664521 -0.04771238 8.74546912 0.08987971 11.9375 2.1875 C11.6075 3.1775 11.2775 4.1675 10.9375 5.1875 C10.21280518 5.02902588 9.48811035 4.87055176 8.74145508 4.70727539 C6.14798338 4.22651777 3.7055216 3.98992678 1.07421875 3.87109375 C-0.25512695 3.80825195 -0.25512695 3.80825195 -1.61132812 3.74414062 C-2.52333984 3.70482422 -3.43535156 3.66550781 -4.375 3.625 C-5.30634766 3.58181641 -6.23769531 3.53863281 -7.19726562 3.49414062 C-9.48554454 3.38852775 -11.77392372 3.28642248 -14.0625 3.1875 C-13.7325 2.5275 -13.4025 1.8675 -13.0625 1.1875 C-8.79532606 -0.08374537 -4.4163203 0.00404796 0 0 Z " fill="#1A1A1A" transform="translate(90.0625,60.8125)"/>
<path d="M0 0 C0.33 0.99 0.66 1.98 1 3 C-1.6619987 5.06857971 -4.33043724 7.12869411 -7 9.1875 C-7.74378906 9.76564453 -8.48757813 10.34378906 -9.25390625 10.93945312 C-12.87767686 13.72818094 -16.536938 16.47040527 -20.3125 19.05078125 C-20.92738281 19.47657471 -21.54226563 19.90236816 -22.17578125 20.34106445 C-24 21 -24 21 -26.23046875 20.12182617 C-26.81441406 19.75162354 -27.39835937 19.3814209 -28 19 C-27.43023437 18.72027344 -26.86046875 18.44054687 -26.2734375 18.15234375 C-16.61144755 13.25494335 -8.37799611 6.78448676 0 0 Z " fill="#272725" transform="translate(305,112)"/>
<path d="M0 0 C0.99 0.33 1.98 0.66 3 1 C2.29875 1.53367187 1.5975 2.06734375 0.875 2.6171875 C-9.02593599 10.39265082 -15.89515551 18.46501485 -21 30 C-21.96714727 27.44812949 -22.13918757 26.3449431 -21.1015625 23.7734375 C-15.5068321 14.68570082 -8.61681647 6.37644419 0 0 Z " fill="#2E2E2D" transform="translate(41,79)"/>
<path d="M0 0 C-0.75 5.75 -0.75 5.75 -3 8 C-6.125 8.125 -6.125 8.125 -9 8 C-9.33 7.01 -9.66 6.02 -10 5 C-7.28518704 -0.42962591 -5.85421974 -1.38652573 0 0 Z " fill="#171717" transform="translate(133,111)"/>
<path d="M0 0 C-1.07665293 2.23612531 -2.19573706 4.29752033 -3.5625 6.375 C-5.1558667 9.28462614 -5.61916299 11.72480174 -6 15 C-5.01 15.33 -4.02 15.66 -3 16 C-7.75 17.125 -7.75 17.125 -10 16 C-9.67 14.35 -9.34 12.7 -9 11 C-8.34 11 -7.68 11 -7 11 C-7.309375 9.63875 -7.309375 9.63875 -7.625 8.25 C-8.01340927 4.88378631 -7.98511244 3.67990179 -6 1 C-3 0 -3 0 0 0 Z " fill="#131410" transform="translate(283,116)"/>
<path d="M0 0 C0.61875 0.804375 1.2375 1.60875 1.875 2.4375 C3.74164041 5.03874519 3.74164041 5.03874519 6 6 C6.1953125 12.0546875 6.1953125 12.0546875 6 14 C5.34 14.66 4.68 15.32 4 16 C3.34 16 2.68 16 2 16 C1.67 13.36 1.34 10.72 1 8 C0.01 8.495 0.01 8.495 -1 9 C-1.33 6.36 -1.66 3.72 -2 1 C-1.34 0.67 -0.68 0.34 0 0 Z " fill="#0F0F0F" transform="translate(109,70)"/>
<path d="M0 0 C2.08335776 3.12503664 3 5.27136471 3 9 C3.66 9 4.32 9 5 9 C5.33 8.34 5.66 7.68 6 7 C5.75 9.375 5.75 9.375 5 12 C2.9375 13.3125 2.9375 13.3125 1 14 C-1 11 -1 11 -1 9 C-0.34 8.67 0.32 8.34 1 8 C0.21625 8.20625 -0.5675 8.4125 -1.375 8.625 C-2.24125 8.74875 -3.1075 8.8725 -4 9 C-4.66 8.34 -5.32 7.68 -6 7 C-4.02 4.69 -2.04 2.38 0 0 Z " fill="#1A1A1A" transform="translate(164,106)"/>
<path d="M0 0 C0.33 0.66 0.66 1.32 1 2 C1.928125 1.7215625 1.928125 1.7215625 2.875 1.4375 C5 1 5 1 7 2 C5.375 7.75 5.375 7.75 2 10 C1.38125 9.505 0.7625 9.01 0.125 8.5 C-1.83880904 6.80777227 -1.83880904 6.80777227 -4 7 C-3.39816251 4.97954558 -2.72693904 2.97888961 -2 1 C-1.34 0.67 -0.68 0.34 0 0 Z " fill="#101010" transform="translate(66,87)"/>
<path d="M0 0 C0.66 0.33 1.32 0.66 2 1 C1.3125 2.9375 1.3125 2.9375 0 5 C-2.625 5.75 -2.625 5.75 -5 6 C-5 6.66 -5 7.32 -5 8 C-8.75 9.125 -8.75 9.125 -11 8 C-11 8.99 -11 9.98 -11 11 C-11.66 11 -12.32 11 -13 11 C-13.33 11.66 -13.66 12.32 -14 13 C-16 13 -16 13 -19 12 C-5.67902665 2.34994206 -5.67902665 2.34994206 0 0 Z " fill="#ECECEA" transform="translate(58,71)"/>
<path d="M0 0 C2 3 2 3 2 5 C1.01 5.495 1.01 5.495 0 6 C-0.33 6.99 -0.66 7.98 -1 9 C-2.95597184 10.39712274 -4.95436401 11.73779907 -7 13 C-6.67 12.01 -6.34 11.02 -6 10 C-6.84304687 10.16757813 -7.68609375 10.33515625 -8.5546875 10.5078125 C-9.65039062 10.71148437 -10.74609375 10.91515625 -11.875 11.125 C-12.96554688 11.33382812 -14.05609375 11.54265625 -15.1796875 11.7578125 C-16.57574219 11.87769531 -16.57574219 11.87769531 -18 12 C-18.66 11.34 -19.32 10.68 -20 10 C-19.35933594 9.89042969 -18.71867187 9.78085938 -18.05859375 9.66796875 C-8.37818179 8.17428908 -8.37818179 8.17428908 -1.0625 2.3125 C-0.5365625 1.1678125 -0.5365625 1.1678125 0 0 Z " fill="#2A2B28" transform="translate(108,134)"/>
<path d="M0 0 C3.68465905 3.28987415 5.77894182 6.63720714 8 11 C8 11.99 8 12.98 8 14 C6.35 14 4.7 14 3 14 C2.73445313 13.45730469 2.46890625 12.91460937 2.1953125 12.35546875 C1.84210938 11.64003906 1.48890625 10.92460938 1.125 10.1875 C0.77695312 9.47980469 0.42890625 8.77210937 0.0703125 8.04296875 C-1.0656486 5.78753582 -1.0656486 5.78753582 -3 3 C-2.01 2.67 -1.02 2.34 0 2 C0 1.34 0 0.68 0 0 Z " fill="#202020" transform="translate(257,82)"/>
<path d="M0 0 C0.66 0.66 1.32 1.32 2 2 C4.10820797 1.6814823 4.10820797 1.6814823 6 1 C6.3125 3.25 6.3125 3.25 6 6 C3.5 8.3125 3.5 8.3125 1 10 C0.34 8.68 -0.32 7.36 -1 6 C-1 6.99 -1 7.98 -1 9 C-1.99 9 -2.98 9 -4 9 C-4.25 6.1875 -4.25 6.1875 -4 3 C-2 1.125 -2 1.125 0 0 Z " fill="#111110" transform="translate(48,109)"/>
<path d="M0 0 C0.8125 1.875 0.8125 1.875 1 4 C0.01 5.485 0.01 5.485 -1 7 C-1.66 7 -2.32 7 -3 7 C-3.33 7.66 -3.66 8.32 -4 9 C-6.0625 7.25 -6.0625 7.25 -8 5 C-8 2.875 -8 2.875 -7 1 C-4.09342573 -1.03460199 -3.47133392 -1.15711131 0 0 Z " fill="#111111" transform="translate(181,95)"/>
<path d="M0 0 C0.99 0.66 1.98 1.32 3 2 C0.35756304 4.36195482 -2.3151641 6.68637936 -5 9 C-5.86367187 9.7528125 -6.72734375 10.505625 -7.6171875 11.28125 C-8.48601562 12.0134375 -9.35484375 12.745625 -10.25 13.5 C-11.05953125 14.1909375 -11.8690625 14.881875 -12.703125 15.59375 C-15 17 -15 17 -17.296875 16.71875 C-17.85890625 16.4815625 -18.4209375 16.244375 -19 16 C-18.29875 15.5153125 -17.5975 15.030625 -16.875 14.53125 C-10.6675106 10.14552379 -5.17136732 5.57144445 0 0 Z " fill="#3B3B3A" transform="translate(165,145)"/>
<path d="M0 0 C1.4570099 0.05332105 2.9140412 0.10606045 4.37109375 0.15820312 C7.9143346 0.28625812 11.45722035 0.42220134 15 0.5625 C15 0.8925 15 1.2225 15 1.5625 C10.75049279 1.76246081 6.50040099 1.9451241 2.25 2.125 C1.06277344 2.18107422 -0.12445313 2.23714844 -1.34765625 2.29492188 C-8.99056911 2.60815601 -16.39583905 2.40070579 -24 1.5625 C-24 1.2325 -24 0.9025 -24 0.5625 C-16.01521012 -0.84107635 -8.05889141 -0.3209293 0 0 Z " fill="#0F0F0F" transform="translate(168,67.4375)"/>
<path d="M0 0 C2 2 2 2 2 6 C2.66 5.01 3.32 4.02 4 3 C4.66 2.67 5.32 2.34 6 2 C5.67 3.65 5.34 5.3 5 7 C5.99 7.33 6.98 7.66 8 8 C7.60196439 10.88575819 7.20990931 11.82189513 4.9375 13.75 C4.298125 14.1625 3.65875 14.575 3 15 C-0.2605096 11.7394904 -0.05467405 8.10916255 -0.0625 3.6875 C-0.041875 2.470625 -0.02125 1.25375 0 0 Z " fill="#0D0D0C" transform="translate(77,126)"/>
<path d="M0 0 C0.66 0.66 1.32 1.32 2 2 C0.7934375 2.04898438 -0.413125 2.09796875 -1.65625 2.1484375 C-3.27085306 2.22353532 -4.88543539 2.29908003 -6.5 2.375 C-7.29148437 2.4059375 -8.08296875 2.436875 -8.8984375 2.46875 C-14.18128612 2.72856223 -18.90743869 3.56333706 -24 5 C-24.33 4.34 -24.66 3.68 -25 3 C-16.73812433 0.16735691 -8.73169559 -0.91474906 0 0 Z " fill="#363734" transform="translate(56,141)"/>
<path d="M0 0 C-0.391875 0.556875 -0.78375 1.11375 -1.1875 1.6875 C-1.5896875 2.8321875 -1.5896875 2.8321875 -2 4 C-0.71815438 6.74832154 -0.71815438 6.74832154 1 9 C0.01 9.33 -0.98 9.66 -2 10 C-4.6875 8.0625 -4.6875 8.0625 -7 6 C-6.6875 4.125 -6.6875 4.125 -6 2 C-3 0 -3 0 0 0 Z M0 4 C1.65 4 3.3 4 5 4 C4.360625 4.12375 3.72125 4.2475 3.0625 4.375 C2.381875 4.58125 1.70125 4.7875 1 5 C0.67 5.66 0.34 6.32 0 7 C0 6.01 0 5.02 0 4 Z " fill="#212121" transform="translate(72,108)"/>
<path d="M0 0 C0.99 0 1.98 0 3 0 C3.33 1.32 3.66 2.64 4 4 C1.33326258 4.02727345 -1.33318869 4.04696948 -4 4.0625 C-5.11568359 4.07506836 -5.11568359 4.07506836 -6.25390625 4.08789062 C-11.26148844 4.10966272 -16.04279032 3.71541549 -21 3 C-21 2.67 -21 2.34 -21 2 C-10.605 1.505 -10.605 1.505 0 1 C0 0.67 0 0.34 0 0 Z " fill="#0E0E0C" transform="translate(261,234)"/>
<path d="M0 0 C3.1391933 2.9366647 4.90494731 4.79857974 5.09765625 9.26171875 C5.08605469 10.06222656 5.07445313 10.86273438 5.0625 11.6875 C5.05347656 12.49574219 5.04445313 13.30398437 5.03515625 14.13671875 C5.02355469 14.75160156 5.01195313 15.36648437 5 16 C3.35 16 1.7 16 0 16 C0.08378906 15.34773437 0.16757813 14.69546875 0.25390625 14.0234375 C0.82554104 9.11750856 1.15311982 4.86872815 0 0 Z " fill="#222221" transform="translate(81,120)"/>
<path d="M0 0 C0.66 0.33 1.32 0.66 2 1 C2 2.32 2 3.64 2 5 C2.66 5.33 3.32 5.66 4 6 C3.34 6 2.68 6 2 6 C2.33 7.32 2.66 8.64 3 10 C0.36 10.33 -2.28 10.66 -5 11 C-3.77472971 6.94718288 -2.30119506 3.55639236 0 0 Z " fill="#21211F" transform="translate(18,146)"/>
<path d="M0 0 C0.66 0.33 1.32 0.66 2 1 C0.75023244 4.65316671 0.32901247 5.78065836 -3 8 C-3.515625 8.86625 -4.03125 9.7325 -4.5625 10.625 C-5.036875 11.40875 -5.51125 12.1925 -6 13 C-6.66 13 -7.32 13 -8 13 C-8 14.32 -8 15.64 -8 17 C-9.98 17.99 -9.98 17.99 -12 19 C-10.48607459 14.59886166 -8.11361098 11.01262049 -5.4375 7.25 C-5.02564453 6.66089844 -4.61378906 6.07179687 -4.18945312 5.46484375 C-1.18071308 1.18071308 -1.18071308 1.18071308 0 0 Z " fill="#E2E2E1" transform="translate(156,133)"/>
<path d="M0 0 C1.32 0.99 2.64 1.98 4 3 C3.67 4.65 3.34 6.3 3 8 C2.21625 7.79375 1.4325 7.5875 0.625 7.375 C-0.674375 7.189375 -0.674375 7.189375 -2 7 C-2.66 7.66 -3.32 8.32 -4 9 C-4.25 6.75 -4.25 6.75 -4 4 C-2 1.6875 -2 1.6875 0 0 Z " fill="#EBEBE9" transform="translate(212,186)"/>
<path d="M0 0 C0.66 0.33 1.32 0.66 2 1 C1.67 1.66 1.34 2.32 1 3 C1.165 3.66 1.33 4.32 1.5 5 C2 7 2 7 1 9 C-1.5625 9.625 -1.5625 9.625 -4 10 C-4 9.34 -4 8.68 -4 8 C-4.99 8.33 -5.98 8.66 -7 9 C-5.44499019 5.18315774 -2.96404505 2.80804268 0 0 Z " fill="#0F0F0D" transform="translate(258,121)"/>
<path d="M0 0 C1.65 0.33 3.3 0.66 5 1 C4.34 3.97 3.68 6.94 3 10 C2.01 10 1.02 10 0 10 C0 9.34 0 8.68 0 8 C-0.66 7.67 -1.32 7.34 -2 7 C-1.34 4.69 -0.68 2.38 0 0 Z " fill="#111113" transform="translate(58,97)"/>
<path d="M0 0 C0 0.99 0 1.98 0 3 C-0.33 3.33 -0.66 3.66 -1 4 C-0.34 4 0.32 4 1 4 C-0.44253657 7.36591866 -2.33264727 9.51047079 -5 12 C-5.99 11.67 -6.98 11.34 -8 11 C-7.33333333 9.66666667 -6.66666667 8.33333333 -6 7 C-5.525625 5.948125 -5.05125 4.89625 -4.5625 3.8125 C-3 1 -3 1 0 0 Z " fill="#0A0B08" transform="translate(269,111)"/>
<path d="M0 0 C0.33 0.66 0.66 1.32 1 2 C0.70351562 2.73605469 0.40703125 3.47210938 0.1015625 4.23046875 C-1.13853581 7.34830457 -1.40479463 9.9727186 -1.625 13.3125 C-1.69976562 14.38113281 -1.77453125 15.44976562 -1.8515625 16.55078125 C-1.90054688 17.35902344 -1.94953125 18.16726562 -2 19 C-2.33 19 -2.66 19 -3 19 C-3.03738281 18.24074219 -3.07476562 17.48148438 -3.11328125 16.69921875 C-3.17902344 15.70535156 -3.24476563 14.71148437 -3.3125 13.6875 C-3.37050781 12.70136719 -3.42851562 11.71523437 -3.48828125 10.69921875 C-3.8079356 7.62903959 -3.8079356 7.62903959 -7 5 C-4.69 3.35 -2.38 1.7 0 0 Z " fill="#D4D4D3" transform="translate(138,143)"/>
<path d="M0 0 C0.66 0.66 1.32 1.32 2 2 C0.35 4.31 -1.3 6.62 -3 9 C-3.61875 8.67 -4.2375 8.34 -4.875 8 C-6.91018344 6.85806765 -6.91018344 6.85806765 -9 7 C-9.99 7 -10.98 7 -12 7 C-10.02 5.35 -8.04 3.7 -6 2 C-6 2.66 -6 3.32 -6 4 C-5.34 4 -4.68 4 -4 4 C-3.67 3.34 -3.34 2.68 -3 2 C-2.01 2 -1.02 2 0 2 C0 1.34 0 0.68 0 0 Z " fill="#E6E6E3" transform="translate(200,125)"/>
<path d="M0 0 C1.1875 2.0625 1.1875 2.0625 2 4 C-0.31 4.66 -2.62 5.32 -5 6 C-5.33 5.34 -5.66 4.68 -6 4 C-8.52733235 3.34444881 -8.52733235 3.34444881 -11 3 C-4.33333333 -1.44444444 -4.33333333 -1.44444444 0 0 Z " fill="#222221" transform="translate(51,163)"/>
<path d="M0 0 C1.32 0.33 2.64 0.66 4 1 C1.47376214 3.52623786 -1.24530578 5.72438303 -4 8 C-3.2236068 11.0745356 -3.2236068 11.0745356 -1 13 C-4.73487777 12.5020163 -6.81237635 12.12508244 -10 10 C-9.36191406 9.44570312 -8.72382812 8.89140625 -8.06640625 8.3203125 C-7.24011719 7.59585938 -6.41382812 6.87140625 -5.5625 6.125 C-4.73878906 5.40570313 -3.91507812 4.68640625 -3.06640625 3.9453125 C-0.94017845 2.16761255 -0.94017845 2.16761255 0 0 Z " fill="#E0E0DF" transform="translate(80,147)"/>
<path d="M0 0 C1 3 1 3 0.5 5.375 C-0.04778734 8.25088353 0.27719833 10.18910462 1 13 C-0.9375 13.5625 -0.9375 13.5625 -3 14 C-4 13 -4 13 -4.3125 10.375 C-3.90549374 5.97933241 -2.36555186 3.69617478 0 0 Z " fill="#2A2A2A" transform="translate(196,134)"/>
<path d="M0 0 C0.66 0.33 1.32 0.66 2 1 C2 3.83967231 1.59732819 6.23735711 1 9 C-1.97 9.66 -4.94 10.32 -8 11 C-7.59007813 10.45730469 -7.18015625 9.91460937 -6.7578125 9.35546875 C-6.21898438 8.64003906 -5.68015625 7.92460937 -5.125 7.1875 C-4.59132812 6.47980469 -4.05765625 5.77210938 -3.5078125 5.04296875 C-2.29185219 3.39543703 -1.13583859 1.70375789 0 0 Z " fill="#E7E7E5" transform="translate(37,134)"/>
<path d="M0 0 C-1.32 0.33 -2.64 0.66 -4 1 C-4 1.66 -4 2.32 -4 3 C-3.34 3 -2.68 3 -2 3 C-2 3.66 -2 4.32 -2 5 C-3.32 5.33 -4.64 5.66 -6 6 C-6 5.34 -6 4.68 -6 4 C-6.556875 4.495 -7.11375 4.99 -7.6875 5.5 C-10.38162983 7.24754367 -11.85375007 7.26218749 -15 7 C-10.37141192 2.02855355 -6.96211019 -0.48572862 0 0 Z " fill="#2C2C2A" transform="translate(238,113)"/>
<path d="M0 0 C-1.01176437 3.40320742 -1.64843582 4.75725331 -4.625 6.8125 C-5.40875 7.204375 -6.1925 7.59625 -7 8 C-7 7.34 -7 6.68 -7 6 C-8.98 6.99 -8.98 6.99 -11 8 C-10.34 6.68 -9.68 5.36 -9 4 C-9.33 3.67 -9.66 3.34 -10 3 C-7.29536552 -0.8183075 -4.37912428 -0.24787496 0 0 Z " fill="#32322F" transform="translate(277,109)"/>
<path d="M0 0 C1.9375 0.375 1.9375 0.375 4 1 C5.5635348 4.12706959 5.39958487 7.57982443 5 11 C4.01 12.485 4.01 12.485 3 14 C2.17361624 11.10765685 2 9.11257569 2 6 C1.34 5.67 0.68 5.34 0 5 C0 3.35 0 1.7 0 0 Z " fill="#212121" transform="translate(72,72)"/>
<path d="M0 0 C7.50769231 0.61538462 7.50769231 0.61538462 10 2.5625 C10.33 3.036875 10.66 3.51125 11 4 C6.34462607 4.83796731 2.62921525 5.0161692 -2 4 C-1.34 2.68 -0.68 1.36 0 0 Z " fill="#121210" transform="translate(228,67)"/>
<path d="M0 0 C0.66 0 1.32 0 2 0 C2.33 2.31 2.66 4.62 3 7 C5.31 7 7.62 7 10 7 C10 7.66 10 8.32 10 9 C6.7 9 3.4 9 0 9 C0 6.03 0 3.06 0 0 Z " fill="#12120F" transform="translate(158,187)"/>
<path d="M0 0 C-0.33 0.99 -0.66 1.98 -1 3 C-1 2.34 -1 1.68 -1 1 C-1.66 1 -2.32 1 -3 1 C-2.2265625 1.8971875 -2.2265625 1.8971875 -1.4375 2.8125 C-0.963125 3.534375 -0.48875 4.25625 0 5 C-0.33 5.99 -0.66 6.98 -1 8 C-3.62901288 6.47793991 -5.84365964 5.15634036 -8 3 C-8 2.01 -8 1.02 -8 0 C-4.71303767 -0.79953138 -3.28976808 -1.09658936 0 0 Z " fill="#0D0D0D" transform="translate(166,114)"/>
<path d="M0 0 C1.32 0 2.64 0 4 0 C4.33 1.32 4.66 2.64 5 4 C7.64 3.34 10.28 2.68 13 2 C13 2.99 13 3.98 13 5 C9.81685629 6.59157185 6.45673445 6.53017399 3 6 C1 4.125 1 4.125 0 2 C0 1.34 0 0.68 0 0 Z " fill="#2D2D2D" transform="translate(139,190)"/>
<path d="M0 0 C0.99 0.66 1.98 1.32 3 2 C3 2.99 3 3.98 3 5 C2.34 5 1.68 5 1 5 C1 5.99 1 6.98 1 8 C-0.98 8.99 -0.98 8.99 -3 10 C-3.75 7.8125 -3.75 7.8125 -4 5 C-2.0625 2.1875 -2.0625 2.1875 0 0 Z " fill="#EAEAE8" transform="translate(233,132)"/>
<path d="M0 0 C0.99 0.66 1.98 1.32 3 2 C1.70700306 4.88437779 0.34058637 6.87219421 -2 9 C-3.32 8.34 -4.64 7.68 -6 7 C-4.02 4.69 -2.04 2.38 0 0 Z " fill="#F0F0ED" transform="translate(242,130)"/>
<path d="M0 0 C0 0.66 0 1.32 0 2 C-1.609375 3.40234375 -1.609375 3.40234375 -3.75 4.9375 C-4.44609375 5.44152344 -5.1421875 5.94554688 -5.859375 6.46484375 C-6.91898438 7.22474609 -6.91898438 7.22474609 -8 8 C-8.68578125 8.57878906 -9.3715625 9.15757813 -10.078125 9.75390625 C-11.02945313 10.37072266 -11.02945313 10.37072266 -12 11 C-12.99 10.67 -13.98 10.34 -15 10 C-13.21024844 8.51851668 -11.41813943 7.03988094 -9.625 5.5625 C-8.62726563 4.73878906 -7.62953125 3.91507812 -6.6015625 3.06640625 C-2.74102079 0 -2.74102079 0 0 0 Z " fill="#292927" transform="translate(205,117)"/>
<path d="M0 0 C1.65 0.33 3.3 0.66 5 1 C4.67 3.97 4.34 6.94 4 10 C3.34 10 2.68 10 2 10 C1.34 9.01 0.68 8.02 0 7 C-0.66 7 -1.32 7 -2 7 C-1.125 2.25 -1.125 2.25 0 0 Z " fill="#101010" transform="translate(71,77)"/>
<path d="M0 0 C4.62 0 9.24 0 14 0 C14 0.66 14 1.32 14 2 C12.68 2 11.36 2 10 2 C10 2.66 10 3.32 10 4 C7.0625 3.625 7.0625 3.625 4 3 C3.67 2.34 3.34 1.68 3 1 C2.67 2.32 2.34 3.64 2 5 C1.34 4.67 0.68 4.34 0 4 C0 2.68 0 1.36 0 0 Z " fill="#0C0C0C" transform="translate(180,9)"/>
<path d="M0 0 C0.33 0 0.66 0 1 0 C1 6.93 1 13.86 1 21 C0.01 21 -0.98 21 -2 21 C-3.125 16.25 -3.125 16.25 -2 14 C-1.34 14 -0.68 14 0 14 C0 9.38 0 4.76 0 0 Z " fill="#0E0E0D" transform="translate(186,175)"/>
<path d="M0 0 C0 0.99 0 1.98 0 3 C0.33 3.33 0.66 3.66 1 4 C1.68753301 5.65816784 2.35561283 7.32459336 3 9 C0.10765685 9.82638376 -1.88742431 10 -5 10 C-3.14285714 2.42857143 -3.14285714 2.42857143 0 0 Z " fill="#0D0D0D" transform="translate(105,143)"/>
<path d="M0 0 C0.99 0 1.98 0 3 0 C3.33 0.99 3.66 1.98 4 3 C3.01 4.485 3.01 4.485 2 6 C1.01 6 0.02 6 -1 6 C-0.67 6.99 -0.34 7.98 0 9 C-0.99 9.66 -1.98 10.32 -3 11 C-3.33 8.36 -3.66 5.72 -4 3 C-3.01 3 -2.02 3 -1 3 C-0.67 2.01 -0.34 1.02 0 0 Z " fill="#0D0D0B" transform="translate(231,123)"/>
<path d="M0 0 C0.99 0.66 1.98 1.32 3 2 C1.68 2.99 0.36 3.98 -1 5 C-3.31 4.01 -5.62 3.02 -8 2 C-8 1.01 -8 0.02 -8 -1 C-4.3286919 -2.22376937 -3.40346492 -1.61664584 0 0 Z " fill="#252523" transform="translate(243,71)"/>
<path d="M0 0 C1.98 0.99 1.98 0.99 4 2 C3.67 3.32 3.34 4.64 3 6 C2.34 6 1.68 6 1 6 C1.33 10.95 1.66 15.9 2 21 C1.34 21 0.68 21 0 21 C0 14.07 0 7.14 0 0 Z " fill="#0F0F0D" transform="translate(174,175)"/>
<path d="M0 0 C0.66 0.66 1.32 1.32 2 2 C-1.88309282 5.64775386 -4.71201818 6.58525633 -10 7 C-10.33 6.01 -10.66 5.02 -11 4 C-9.1128125 3.566875 -9.1128125 3.566875 -7.1875 3.125 C-4.1460601 2.42696461 -2.69330122 1.79553415 0 0 Z " fill="#21221E" transform="translate(266,126)"/>
<path d="M0 0 C1.98 0.66 3.96 1.32 6 2 C6 5 6 5 4.25 6.82421875 C3.5075 7.43910156 2.765 8.05398437 2 8.6875 C0.88625 9.62142578 0.88625 9.62142578 -0.25 10.57421875 C-0.8275 11.04472656 -1.405 11.51523438 -2 12 C-2 9 -2 9 0 6 C0.16699232 2.87478167 0.16699232 2.87478167 0 0 Z " fill="#E3E3E3" transform="translate(189,119)"/>
<path d="M0 0 C3.72940389 1.24313463 4.84656811 2.76985216 7 6 C6.67 6.99 6.34 7.98 6 9 C4.68 9 3.36 9 2 9 C1.67 7.35 1.34 5.7 1 4 C0.34 4 -0.32 4 -1 4 C-0.67 2.68 -0.34 1.36 0 0 Z " fill="#0B0B0B" transform="translate(165,106)"/>
<path d="M0 0 C3.37462715 0.54723683 5.08235 1.0549 8 3 C7.67 3.99 7.34 4.98 7 6 C6.01 6.33 5.02 6.66 4 7 C2.35 5.35 0.7 3.7 -1 2 C-0.67 1.34 -0.34 0.68 0 0 Z " fill="#131313" transform="translate(101,63)"/>
<path d="M0 0 C1.423125 0.4021875 1.423125 0.4021875 2.875 0.8125 C3.205 1.4725 3.535 2.1325 3.875 2.8125 C1.565 3.4725 -0.745 4.1325 -3.125 4.8125 C-3.455 4.4825 -3.785 4.1525 -4.125 3.8125 C-4.455 6.7825 -4.785 9.7525 -5.125 12.8125 C-5.455 12.8125 -5.785 12.8125 -6.125 12.8125 C-6.20621924 11.20917209 -6.26429134 9.60465974 -6.3125 8 C-6.34730469 7.10667969 -6.38210937 6.21335938 -6.41796875 5.29296875 C-6.125 2.8125 -6.125 2.8125 -4.80859375 0.9765625 C-3.125 -0.1875 -3.125 -0.1875 0 0 Z " fill="#E4E4E2" transform="translate(148.125,177.1875)"/>
<path d="M0 0 C0.66 0.33 1.32 0.66 2 1 C1.25 5.75 1.25 5.75 -1 8 C-4.625 8.125 -4.625 8.125 -8 8 C-8.33 6.68 -8.66 5.36 -9 4 C-6.36 4.66 -3.72 5.32 -1 6 C-1.020625 5.195625 -1.04125 4.39125 -1.0625 3.5625 C-1 1 -1 1 0 0 Z " fill="#1A1A19" transform="translate(218,188)"/>
<path d="M0 0 C0.99 0.66 1.98 1.32 3 2 C5.15274948 1.69159401 5.15274948 1.69159401 7 1 C4.99469263 4.00796105 3.41312965 5.72007638 0 7 C-0.99 7 -1.98 7 -3 7 C-1.125 1.125 -1.125 1.125 0 0 Z " fill="#EAEAEA" transform="translate(105,155)"/>
<path d="M0 0 C0.33 0 0.66 0 1 0 C1.66 2.97 2.32 5.94 3 9 C0.36 10.98 -2.28 12.96 -5 15 C-4.07361787 12.61787452 -3.16764006 10.30569658 -1.9375 8.0625 C-0.73861104 5.42494429 -0.38972169 2.85795906 0 0 Z " fill="#E4E4E1" transform="translate(212,118)"/>
<path d="M0 0 C0.33 1.32 0.66 2.64 1 4 C2.32 3.67 3.64 3.34 5 3 C5 4.32 5 5.64 5 7 C3.68 7.33 2.36 7.66 1 8 C-0.32 6.35 -1.64 4.7 -3 3 C-2.01 2.01 -1.02 1.02 0 0 Z " fill="#131313" transform="translate(96,96)"/>
<path d="M0 0 C2.05078125 0.03255208 4.1015625 0.06510417 6.15234375 0.09765625 C6.15234375 1.08765625 6.15234375 2.07765625 6.15234375 3.09765625 C3.19569856 4.57597885 0.41004638 4.15798408 -2.84765625 4.09765625 C-2.84765625 0.15051037 -2.84765625 0.15051037 0 0 Z " fill="#11110F" transform="translate(39.84765625,165.90234375)"/>
<path d="M0 0 C0.66 0.33 1.32 0.66 2 1 C2.36923077 7.52307692 2.36923077 7.52307692 0.5 9.9375 C0.005 10.288125 -0.49 10.63875 -1 11 C-1.99 10.67 -2.98 10.34 -4 10 C-2.68 6.7 -1.36 3.4 0 0 Z " fill="#1F1F1F" transform="translate(76,133)"/>
<path d="M0 0 C0.33 1.65 0.66 3.3 1 5 C-4.53846154 5.36923077 -4.53846154 5.36923077 -6.875 3.5 C-7.24625 3.005 -7.6175 2.51 -8 2 C-4.77208445 -0.1519437 -3.71599191 -0.20086443 0 0 Z " fill="#1E1E1D" transform="translate(117,131)"/>
<path d="M0 0 C0 3 0 3 -1 5 C-0.34 5.33 0.32 5.66 1 6 C-4.75 10 -4.75 10 -7 10 C-5.6062718 5.56541027 -3.39417765 3.12621626 0 0 Z " fill="#DADAD7" transform="translate(266,120)"/>
<path d="M0 0 C2.625 0.375 2.625 0.375 5 1 C5 2.65 5 4.3 5 6 C2 6 2 6 -0.1875 4 C-0.785625 3.34 -1.38375 2.68 -2 2 C-1.34 1.34 -0.68 0.68 0 0 Z " fill="#20201E" transform="translate(280,109)"/>
<path d="M0 0 C0.33 1.32 0.66 2.64 1 4 C2.65 4 4.3 4 6 4 C6 4.33 6 4.66 6 5 C3.69 5 1.38 5 -1 5 C-1.33 5.99 -1.66 6.98 -2 8 C-2.33 7.01 -2.66 6.02 -3 5 C-3.66 5 -4.32 5 -5 5 C-4.67 3.68 -4.34 2.36 -4 1 C-3.01 1.33 -2.02 1.66 -1 2 C-0.67 1.34 -0.34 0.68 0 0 Z " fill="#222221" transform="translate(81,142)"/>
<path d="M0 0 C0.66 0.66 1.32 1.32 2 2 C1.81511956 4.86564686 1.20773139 5.81237165 -0.9375 7.75 C-3 9 -3 9 -5 9 C-3.7508258 5.54074837 -2.32472205 2.85306797 0 0 Z " fill="#20201E" transform="translate(226,126)"/>
<path d="M0 0 C-1.94605136 4.17011006 -3.82988994 6.05394864 -8 8 C-7.125 3.25 -7.125 3.25 -6 1 C-3 0 -3 0 0 0 Z " fill="#1C1C1A" transform="translate(283,116)"/>
<path d="M0 0 C0.99 0.99 1.98 1.98 3 3 C-0.3 3.33 -3.6 3.66 -7 4 C-7.33 2.68 -7.66 1.36 -8 0 C-4.71303767 -0.79953138 -3.28976808 -1.09658936 0 0 Z " fill="#1C1C1A" transform="translate(37,168)"/>
<path d="M0 0 C0.66 0 1.32 0 2 0 C2.33 0.99 2.66 1.98 3 3 C0.03 5.475 0.03 5.475 -3 8 C-3.66 7.67 -4.32 7.34 -5 7 C-5 5.68 -5 4.36 -5 3 C-3.35 3 -1.7 3 0 3 C0 2.01 0 1.02 0 0 Z " fill="#EBEBE9" transform="translate(156,149)"/>
<path d="M0 0 C1.125 1.75 1.125 1.75 2 4 C1.125 6.25 1.125 6.25 0 8 C-0.66 7.01 -1.32 6.02 -2 5 C-3.65 5.33 -5.3 5.66 -7 6 C-4.9859524 2.9789286 -3.36720387 1.39332574 0 0 Z " fill="#F5F5F4" transform="translate(217,129)"/>
<path d="M0 0 C0.99 0.33 1.98 0.66 3 1 C1.57691006 4.55772484 0.35066023 5.34895003 -3 7 C-4.28016835 8.00435972 -5.53128122 9.04690261 -6.75 10.125 C-7.36359375 10.66382812 -7.9771875 11.20265625 -8.609375 11.7578125 C-9.06828125 12.16773437 -9.5271875 12.57765625 -10 13 C-8.60366893 9.81440048 -6.95442507 7.76056155 -4.4375 5.375 C-1.85984611 2.95478041 -1.85984611 2.95478041 0 0 Z " fill="#E2E2E2" transform="translate(195,87)"/>
<path d="M0 0 C0.99 0.33 1.98 0.66 3 1 C-2.445 5.455 -2.445 5.455 -8 10 C-8 7 -8 7 -6.35546875 5.140625 C-5.64003906 4.51671875 -4.92460938 3.8928125 -4.1875 3.25 C-3.47980469 2.61578125 -2.77210937 1.9815625 -2.04296875 1.328125 C-1.36878906 0.88984375 -0.69460937 0.4515625 0 0 Z " fill="#222221" transform="translate(41,79)"/>
<path d="M0 0 C0.66 0.66 1.32 1.32 2 2 C-1.3 4.97 -4.6 7.94 -8 11 C-8.33 10.01 -8.66 9.02 -9 8 C-6.03 5.36 -3.06 2.72 0 0 Z " fill="#2D2D2A" transform="translate(250,129)"/>
<path d="M0 0 C1.65 0.33 3.3 0.66 5 1 C5.33 1.99 5.66 2.98 6 4 C4.02 4 2.04 4 0 4 C-0.33 4.99 -0.66 5.98 -1 7 C-1.33 6.01 -1.66 5.02 -2 4 C-2.66 3.67 -3.32 3.34 -4 3 C-3.01 2.67 -2.02 2.34 -1 2 C-0.67 1.34 -0.34 0.68 0 0 Z " fill="#0E0E0E" transform="translate(72,108)"/>
<path d="M0 0 C0.33 0 0.66 0 1 0 C1.33 2.64 1.66 5.28 2 8 C1.34 8 0.68 8 0 8 C-0.33 8.66 -0.66 9.32 -1 10 C-1.99 9.67 -2.98 9.34 -4 9 C-3.67 7.02 -3.34 5.04 -3 3 C-2.34 3.33 -1.68 3.66 -1 4 C-0.67 2.68 -0.34 1.36 0 0 Z " fill="#D4D4D3" transform="translate(137,184)"/>
<path d="M0 0 C-0.39803561 2.88575819 -0.79009069 3.82189513 -3.0625 5.75 C-3.701875 6.1625 -4.34125 6.575 -5 7 C-5 6.01 -5 5.02 -5 4 C-5.99 3.67 -6.98 3.34 -8 3 C-4.93882432 0.37613513 -4.26826873 0 0 0 Z " fill="#282827" transform="translate(210,132)"/>
<path d="M0 0 C0.66 0.33 1.32 0.66 2 1 C1.67 2.65 1.34 4.3 1 6 C0.01 6 -0.98 6 -2 6 C-2 4.35 -2 2.7 -2 1 C-1.34 0.67 -0.68 0.34 0 0 Z M-2 7 C-1.01 7.33 -0.02 7.66 1 8 C0.67 8.99 0.34 9.98 0 11 C-0.66 10.67 -1.32 10.34 -2 10 C-2 9.01 -2 8.02 -2 7 Z " fill="#F8F8F6" transform="translate(237,130)"/>
<path d="M0 0 C3.72114571 2.31537955 6.61229661 4.28579473 9 8 C7.68 8 6.36 8 5 8 C4.67 7.01 4.34 6.02 4 5 C3.01 4.67 2.02 4.34 1 4 C0.3125 1.9375 0.3125 1.9375 0 0 Z " fill="#222221" transform="translate(248,74)"/>
<path d="M0 0 C0 0.66 0 1.32 0 2 C-4.29385993 5.4887612 -7.71870895 5.26854022 -13 5 C-10.54278328 3.36185552 -8.65432189 2.38047801 -5.9375 1.375 C-5.24527344 1.11460937 -4.55304688 0.85421875 -3.83984375 0.5859375 C-2 0 -2 0 0 0 Z " fill="#4F4F4F" transform="translate(113,159)"/>
<path d="M0 0 C1 4 1 4 0 6 C-0.66 6 -1.32 6 -2 6 C-2.33 6.99 -2.66 7.98 -3 9 C-4.32 8.67 -5.64 8.34 -7 8 C-4.69 5.36 -2.38 2.72 0 0 Z " fill="#1F1F1F" transform="translate(43,113)"/>
<path d="M0 0 C0.6875 2.0625 0.6875 2.0625 1 4 C-2 4 -2 4 -4 3 C-6.09821215 3.39938767 -6.09821215 3.39938767 -8 4 C-7 1 -7 1 -5.125 -0.25 C-3 -1 -3 -1 0 0 Z " fill="#0B0B0B" transform="translate(181,95)"/>
<path d="M0 0 C0.66 0 1.32 0 2 0 C1.67 1.32 1.34 2.64 1 4 C1.66 4 2.32 4 3 4 C3 5.65 3 7.3 3 9 C2.01 9.495 2.01 9.495 1 10 C-0.83691257 6.21812119 -1.15837626 4.05431692 0 0 Z " fill="#F9F9F7" transform="translate(134,179)"/>
<path d="M0 0 C3.76687864 0 4.91190305 0.23537317 8 2 C6.60804085 4.7839183 4.84424221 4.97898997 2 6 C0 3 0 3 0 0 Z " fill="#0C0C09" transform="translate(109,134)"/>
<path d="M0 0 C2.475 0.99 2.475 0.99 5 2 C5.33 1.34 5.66 0.68 6 0 C5.67 2.64 5.34 5.28 5 8 C4.34 8 3.68 8 3 8 C3 7.34 3 6.68 3 6 C2.34 5.67 1.68 5.34 1 5 C1.33 4.34 1.66 3.68 2 3 C1.01 3 0.02 3 -1 3 C-0.67 2.01 -0.34 1.02 0 0 Z " fill="#0F0F0D" transform="translate(33,126)"/>
<path d="M0 0 C2.25 0.25 2.25 0.25 4 1 C3.34 2.65 2.68 4.3 2 6 C-1 6 -1 6 -4 4 C-2.25 1.9375 -2.25 1.9375 0 0 Z " fill="#1C1C19" transform="translate(206,125)"/>
<path d="M0 0 C0.98120464 3.05263664 0.98120464 4.94736336 0 8 C-1.65 7.67 -3.3 7.34 -5 7 C-1.125 1.125 -1.125 1.125 0 0 Z " fill="#222222" transform="translate(173,96)"/>
<path d="M0 0 C2.0625 0.4375 2.0625 0.4375 4 1 C3.39816251 3.02045442 2.72693904 5.02111039 2 7 C1.01 7.495 1.01 7.495 0 8 C-0.38063221 5.6739143 -0.71269945 3.33944736 -1 1 C-0.67 0.67 -0.34 0.34 0 0 Z " fill="#161616" transform="translate(69,88)"/>
<path d="M0 0 C0.33 0.66 0.66 1.32 1 2 C0.01 2.495 0.01 2.495 -1 3 C-1.33 3.99 -1.66 4.98 -2 6 C-2.66 6 -3.32 6 -4 6 C-4.33 6.66 -4.66 7.32 -5 8 C-7 8 -7 8 -10 7 C-6.7 4.69 -3.4 2.38 0 0 Z " fill="#E2E2E0" transform="translate(49,76)"/>
<path d="M0 0 C0.33 1.32 0.66 2.64 1 4 C0.01 3.67 -0.98 3.34 -2 3 C-2.4125 3.61875 -2.825 4.2375 -3.25 4.875 C-5.05573879 7.06768281 -6.4090534 7.92788417 -9 9 C-7.45665977 5.21180126 -4.44676575 0 0 0 Z " fill="#E3E3E3" transform="translate(168,147)"/>
<path d="M0 0 C0.33 0.66 0.66 1.32 1 2 C0.06421005 4.35981813 -0.93347808 6.69631264 -2 9 C-3.32 8.34 -4.64 7.68 -6 7 C-4.02 4.69 -2.04 2.38 0 0 Z " fill="#262626" transform="translate(164,106)"/>
<path d="M0 0 C4.62 0 9.24 0 14 0 C14 0.33 14 0.66 14 1 C10.7 1 7.4 1 4 1 C4.33 2.32 4.66 3.64 5 5 C2.5 3.625 2.5 3.625 0 2 C0 1.34 0 0.68 0 0 Z " fill="#CDCDCD" transform="translate(176,14)"/>
<path d="M0 0 C0.99 0.33 1.98 0.66 3 1 C1.9375 2.5625 1.9375 2.5625 0 4 C-3.6875 3.6875 -3.6875 3.6875 -7 3 C-7 2.34 -7 1.68 -7 1 C-5.5459375 1.0309375 -5.5459375 1.0309375 -4.0625 1.0625 C-1.12534105 1.35618499 -1.12534105 1.35618499 0 0 Z " fill="#262626" transform="translate(131,192)"/>
<path d="M0 0 C0.33 0.66 0.66 1.32 1 2 C2.98 2 4.96 2 7 2 C7 2.66 7 3.32 7 4 C5.02 4 3.04 4 1 4 C0.67 5.32 0.34 6.64 0 8 C-1.125 2.25 -1.125 2.25 0 0 Z " fill="#262624" transform="translate(160,182)"/>
<path d="M0 0 C-0.8125 1.9375 -0.8125 1.9375 -2 4 C-2.99 4.33 -3.98 4.66 -5 5 C-5.66 3.35 -6.32 1.7 -7 0 C-3.86650268 -1.04449911 -3.01031744 -0.93423645 0 0 Z " fill="#0B0B0A" transform="translate(206,131)"/>
<path d="M0 0 C0.93423645 3.01031744 1.04449911 3.86650268 0 7 C-0.66 7 -1.32 7 -2 7 C-2 7.66 -2 8.32 -2 9 C-2.99 9 -3.98 9 -5 9 C-3.50163895 5.88801935 -1.80066242 2.9465385 0 0 Z " fill="#212321" transform="translate(180,122)"/>
<path d="M0 0 C0.99 0 1.98 0 3 0 C3 0.66 3 1.32 3 2 C3.66 2.33 4.32 2.66 5 3 C4.01 3.495 4.01 3.495 3 4 C2.34 3.67 1.68 3.34 1 3 C1 3.66 1 4.32 1 5 C1.99 5.33 2.98 5.66 4 6 C3.01 6.66 2.02 7.32 1 8 C0.26919734 6.02253397 -0.39421747 4.01927511 -1 2 C-0.67 1.34 -0.34 0.68 0 0 Z " fill="#0A0A08" transform="translate(206,119)"/>
<path d="M0 0 C2.475 0.99 2.475 0.99 5 2 C4.67 3.32 4.34 4.64 4 6 C3.01 5.67 2.02 5.34 1 5 C0.67 5.66 0.34 6.32 0 7 C-0.38133299 5.0085944 -0.71325582 3.00720923 -1 1 C-0.67 0.67 -0.34 0.34 0 0 Z " fill="#F3F3F1" transform="translate(49,96)"/>
<path d="M0 0 C1.67542976 0.28604898 3.34385343 0.61781233 5 1 C5 2.32 5 3.64 5 5 C3.35 5 1.7 5 0 5 C-0.5625 3.0625 -0.5625 3.0625 -1 1 C-0.67 0.67 -0.34 0.34 0 0 Z " fill="#151515" transform="translate(98,158)"/>
<path d="M0 0 C0 0.99 0 1.98 0 3 C-1.75 4.60546875 -1.75 4.60546875 -4 6.1875 C-4.7425 6.71730469 -5.485 7.24710938 -6.25 7.79296875 C-6.8275 8.19128906 -7.405 8.58960938 -8 9 C-8 8.01 -8 7.02 -8 6 C-6.25 4.39453125 -6.25 4.39453125 -4 2.8125 C-3.2575 2.28269531 -2.515 1.75289062 -1.75 1.20703125 C-1.1725 0.80871094 -0.595 0.41039062 0 0 Z " fill="#191916" transform="translate(240,138)"/>
<path d="M0 0 C-1.98 1.98 -3.96 3.96 -6 6 C-6.66 5.67 -7.32 5.34 -8 5 C-7.75 3.125 -7.75 3.125 -7 1 C-4.09342573 -1.03460199 -3.47133392 -1.15711131 0 0 Z " fill="#151415" transform="translate(192,129)"/>
<path d="M0 0 C2.64285714 3.96428571 2.64285714 3.96428571 3 7 C2.0625 9.75 2.0625 9.75 1 12 C0.67 12 0.34 12 0 12 C-0.19401633 10.18818595 -0.38004375 8.37551468 -0.5625 6.5625 C-0.66691406 5.55316406 -0.77132812 4.54382813 -0.87890625 3.50390625 C-0.91886719 2.67761719 -0.95882812 1.85132812 -1 1 C-0.67 0.67 -0.34 0.34 0 0 Z " fill="#FCFBFB" transform="translate(187,25)"/>
<path d="M0 0 C0.66 1.32 1.32 2.64 2 4 C0.71937515 5.7074998 -0.61767557 7.37373596 -2 9 C-2.66 9 -3.32 9 -4 9 C-3.35455571 5.51460083 -1.89865603 2.97180943 0 0 Z " fill="#232323" transform="translate(173,143)"/>
<path d="M0 0 C1.32 0.33 2.64 0.66 4 1 C3.34 2.32 2.68 3.64 2 5 C0.35 4.67 -1.3 4.34 -3 4 C-2.01 2.68 -1.02 1.36 0 0 Z " fill="#4E4E4E" transform="translate(184,117)"/>
<path d="M0 0 C0.99 1.32 1.98 2.64 3 4 C-0.96 5.98 -0.96 5.98 -5 8 C-3.47524303 4.95048605 -2.07114674 2.63600494 0 0 Z " fill="#E9E9E9" transform="translate(69,96)"/>
<path d="M0 0 C0 3.58912412 -0.66436554 4.10857029 -3 6.6875 C-3.556875 7.31011719 -4.11375 7.93273437 -4.6875 8.57421875 C-5.120625 9.04472656 -5.55375 9.51523438 -6 10 C-6.33 9.01 -6.66 8.02 -7 7 C-4.66666667 4.66666667 -2.33333333 2.33333333 0 0 Z " fill="#E6E6E4" transform="translate(38,84)"/>
<path d="M0 0 C1.32 1.32 2.64 2.64 4 4 C3.01 5.485 3.01 5.485 2 7 C-1.875 5.25 -1.875 5.25 -3 3 C-2.01 2.67 -1.02 2.34 0 2 C0 1.34 0 0.68 0 0 Z " fill="#272727" transform="translate(257,82)"/>
<path d="M0 0 C1.98 0.99 1.98 0.99 4 2 C4 3.98 4 5.96 4 8 C3.34 8 2.68 8 2 8 C1.34 5.36 0.68 2.72 0 0 Z " fill="#131311" transform="translate(130,184)"/>
<path d="M0 0 C0.99 0.33 1.98 0.66 3 1 C2.01 1.66 1.02 2.32 0 3 C0 3.99 0 4.98 0 6 C-1.875 6.625 -1.875 6.625 -4 7 C-4.66 6.34 -5.32 5.68 -6 5 C-1.60546875 0.99609375 -1.60546875 0.99609375 0 0 Z " fill="#E2E2DF" transform="translate(240,140)"/>
<path d="M0 0 C1.231394 3.69418201 0.64432764 6.2056261 0 10 C-0.99 9.67 -1.98 9.34 -3 9 C-2.5020163 5.26512223 -2.12508244 3.18762365 0 0 Z " fill="#252523" transform="translate(196,134)"/>
<path d="M0 0 C0.66 0.99 1.32 1.98 2 3 C0.68 4.65 -0.64 6.3 -2 8 C-2.6875 6.25 -2.6875 6.25 -3 4 C-1.5625 1.75 -1.5625 1.75 0 0 Z " fill="#EEEFEA" transform="translate(107,131)"/>
<path d="M0 0 C-1.98 1.32 -3.96 2.64 -6 4 C-7.32 3.34 -8.64 2.68 -10 2 C-3.75 -1.125 -3.75 -1.125 0 0 Z " fill="#393A35" transform="translate(287,129)"/>
<path d="M0 0 C1.32 0.66 2.64 1.32 4 2 C2.35 3.98 0.7 5.96 -1 8 C-1.93065133 5.39417629 -2.14917407 4.35801776 -1.0625 1.75 C-0.711875 1.1725 -0.36125 0.595 0 0 Z " fill="#1D1D1C" transform="translate(40,125)"/>
<path d="M0 0 C0 0.99 0 1.98 0 3 C-3 5.1875 -3 5.1875 -6 7 C-5.8125 5.1875 -5.8125 5.1875 -5 3 C-2.4375 1.25 -2.4375 1.25 0 0 Z " fill="#191918" transform="translate(225,119)"/>
<path d="M0 0 C1.32 0 2.64 0 4 0 C3.34 1.32 2.68 2.64 2 4 C0.68 4 -0.64 4 -2 4 C-1.34 2.68 -0.68 1.36 0 0 Z " fill="#10110F" transform="translate(263,118)"/>
<path d="M0 0 C0.33 0.66 0.66 1.32 1 2 C-0.1875 4 -0.1875 4 -2 6 C-4.6875 6.25 -4.6875 6.25 -7 6 C-2.25 1.125 -2.25 1.125 0 0 Z " fill="#D9D9D7" transform="translate(232,116)"/>
<path d="M0 0 C0.33 1.32 0.66 2.64 1 4 C-1.97 6.475 -1.97 6.475 -5 9 C-5.66 8.67 -6.32 8.34 -7 8 C-4.69 5.36 -2.38 2.72 0 0 Z " fill="#D6D6D6" transform="translate(52,116)"/>
<path d="M0 0 C0.66 0.66 1.32 1.32 2 2 C1.8125 4 1.8125 4 1 6 C0.01 6.66 -0.98 7.32 -2 8 C-2 4.23312136 -1.76462683 3.08809695 0 0 Z " fill="#1C1C1C" transform="translate(174,105)"/>
<path d="M0 0 C0.99 1.32 1.98 2.64 3 4 C-1.625 6.125 -1.625 6.125 -5 5 C-3.35 3.35 -1.7 1.7 0 0 Z " fill="#2B2B2B" transform="translate(179,90)"/>
<path d="M0 0 C0.33 0.66 0.66 1.32 1 2 C2.65 2 4.3 2 6 2 C5.01 2.66 4.02 3.32 3 4 C3.33 4.66 3.66 5.32 4 6 C2.35 5.67 0.7 5.34 -1 5 C-0.67 3.35 -0.34 1.7 0 0 Z " fill="#333331" transform="translate(153,55)"/>
<path d="M0 0 C1.98 0.66 3.96 1.32 6 2 C5.67 2.99 5.34 3.98 5 5 C3.68 5 2.36 5 1 5 C0.34 4.34 -0.32 3.68 -1 3 C-0.67 2.01 -0.34 1.02 0 0 Z " fill="#F3F3F3" transform="translate(97,162)"/>
<path d="M0 0 C2.625 0.3125 2.625 0.3125 4.4375 2.3125 C4.829375 2.9725 5.22125 3.6325 5.625 4.3125 C1.89012223 3.8145163 -0.18737635 3.43758244 -3.375 1.3125 C-2.375 0.3125 -2.375 0.3125 0 0 Z " fill="#E9E9E7" transform="translate(73.375,155.6875)"/>
<path d="M0 0 C0.66 0.99 1.32 1.98 2 3 C-2.75 7 -2.75 7 -5 7 C-4.1875 5.0625 -4.1875 5.0625 -3 3 C-2.01 2.67 -1.02 2.34 0 2 C0 1.34 0 0.68 0 0 Z " fill="#E6E6E4" transform="translate(123,148)"/>
<path d="M0 0 C0.99 0.33 1.98 0.66 3 1 C3 2.65 3 4.3 3 6 C1.35 5.67 -0.3 5.34 -2 5 C-1.34 3.35 -0.68 1.7 0 0 Z " fill="#202020" transform="translate(187,119)"/>
<path d="M0 0 C0.33 0.99 0.66 1.98 1 3 C-1.25 5.0625 -1.25 5.0625 -4 7 C-5.32 6.67 -6.64 6.34 -8 6 C-5.36 4.02 -2.72 2.04 0 0 Z " fill="#3A3A38" transform="translate(305,112)"/>
<path d="M0 0 C1.98 0.495 1.98 0.495 4 1 C3.67 2.65 3.34 4.3 3 6 C1.68 4.68 0.36 3.36 -1 2 C-0.67 1.34 -0.34 0.68 0 0 Z " fill="#0E0E0E" transform="translate(72,115)"/>
<path d="M0 0 C1.67542976 0.28604898 3.34385343 0.61781233 5 1 C4.67 2.32 4.34 3.64 4 5 C1 4 1 4 -1 1 C-0.67 0.67 -0.34 0.34 0 0 Z " fill="#292929" transform="translate(128,110)"/>
<path d="M0 0 C0.66 0.33 1.32 0.66 2 1 C1.01 2.485 1.01 2.485 0 4 C-0.99 4 -1.98 4 -3 4 C-3 4.66 -3 5.32 -3 6 C-4.32 5.34 -5.64 4.68 -7 4 C-1.7265625 0.77734375 -1.7265625 0.77734375 0 0 Z " fill="#272727" transform="translate(57,157)"/>
<path d="M0 0 C0.99 0.66 1.98 1.32 3 2 C0.69 3.65 -1.62 5.3 -4 7 C-4 4 -4 4 -2 1.8125 C-1.34 1.214375 -0.68 0.61625 0 0 Z " fill="#3B3B3B" transform="translate(165,145)"/>
<path d="M0 0 C0.33 0 0.66 0 1 0 C1 1.65 1 3.3 1 5 C-0.98 5.99 -0.98 5.99 -3 7 C-3 5.68 -3 4.36 -3 3 C-2.01 2.67 -1.02 2.34 0 2 C0 1.34 0 0.68 0 0 Z " fill="#FBFBF9" transform="translate(233,135)"/>
<path d="M0 0 C1.32 0.66 2.64 1.32 4 2 C3.67 2.99 3.34 3.98 3 5 C0.525 4.01 0.525 4.01 -2 3 C-1.34 2.01 -0.68 1.02 0 0 Z " fill="#1C1C1C" transform="translate(35,123)"/>
<path d="M0 0 C0.33 0.99 0.66 1.98 1 3 C0.01 3.99 -0.98 4.98 -2 6 C-3.32 5.34 -4.64 4.68 -6 4 C-4.02 2.68 -2.04 1.36 0 0 Z " fill="#D9D9D7" transform="translate(205,118)"/>
<path d="M0 0 C1.65 0 3.3 0 5 0 C4.360625 0.12375 3.72125 0.2475 3.0625 0.375 C2.381875 0.58125 1.70125 0.7875 1 1 C0.67 1.66 0.34 2.32 0 3 C0 2.01 0 1.02 0 0 Z M-3 1 C-1.68 2.32 -0.36 3.64 1 5 C0.01 5.33 -0.98 5.66 -2 6 C-2.33 4.35 -2.66 2.7 -3 1 Z " fill="#1B1B1B" transform="translate(72,112)"/>
<path d="M0 0 C-0.33 0.66 -0.66 1.32 -1 2 C-1.33 2 -1.66 2 -2 2 C-2.33 3.65 -2.66 5.3 -3 7 C-3.66 6.67 -4.32 6.34 -5 6 C-5.625 2.9375 -5.625 2.9375 -6 0 C-2.25 -1.125 -2.25 -1.125 0 0 Z " fill="#4A4A48" transform="translate(220,187)"/>
<path d="M0 0 C-1.45255699 3.82946843 -3.42895561 5.12050295 -7 7 C-3.86206897 0 -3.86206897 0 0 0 Z " fill="#252524" transform="translate(161,151)"/>
<path d="M0 0 C0.99 0.33 1.98 0.66 3 1 C1.49336217 4.01327566 -1.03166411 4.61056618 -4 6 C-4 5.01 -4 4.02 -4 3 C-2.1875 1.25 -2.1875 1.25 0 0 Z " fill="#454544" transform="translate(137,141)"/>
<path d="M0 0 C1.485 0.99 1.485 0.99 3 2 C2.67 3.32 2.34 4.64 2 6 C1.34 6 0.68 6 0 6 C-0.38218767 4.34385343 -0.71395102 2.67542976 -1 1 C-0.67 0.67 -0.34 0.34 0 0 Z " fill="#191919" transform="translate(107,145)"/>
<path d="M0 0 C0.99 0.99 1.98 1.98 3 3 C2.34 3 1.68 3 1 3 C1 3.66 1 4.32 1 5 C0.34 5 -0.32 5 -1 5 C-1.33 5.66 -1.66 6.32 -2 7 C-2.125 4.625 -2.125 4.625 -2 2 C-1.34 1.34 -0.68 0.68 0 0 Z " fill="#0F0F0E" transform="translate(142,141)"/>
<path d="M0 0 C1.485 0.99 1.485 0.99 3 2 C3.99 1.67 4.98 1.34 6 1 C5.67 2.32 5.34 3.64 5 5 C3.68 4.67 2.36 4.34 1 4 C0.67 2.68 0.34 1.36 0 0 Z " fill="#1B1B1B" transform="translate(219,136)"/>
<path d="M0 0 C0.99 0.33 1.98 0.66 3 1 C2.67 2.32 2.34 3.64 2 5 C0.68 5 -0.64 5 -2 5 C-1.125 1.125 -1.125 1.125 0 0 Z " fill="#090C09" transform="translate(177,132)"/>
<path d="M0 0 C-0.6875 1.9375 -0.6875 1.9375 -2 4 C-4.625 4.75 -4.625 4.75 -7 5 C-2.25 0 -2.25 0 0 0 Z " fill="#333331" transform="translate(197,123)"/>
<path d="M0 0 C-0.66 1.65 -1.32 3.3 -2 5 C-2.99 5 -3.98 5 -5 5 C-4.625 3.0625 -4.625 3.0625 -4 1 C-2 0 -2 0 0 0 Z " fill="#C8C8C6" transform="translate(277,113)"/>
<path d="M0 0 C2.0625 0.4375 2.0625 0.4375 4 1 C4.33 2.65 4.66 4.3 5 6 C1.60085025 4.86695008 0.94745549 3.87481525 -1 1 C-0.67 0.67 -0.34 0.34 0 0 Z " fill="#161616" transform="translate(166,104)"/>
<path d="M0 0 C0.66 0.66 1.32 1.32 2 2 C1.01 2.495 1.01 2.495 0 3 C-0.72159424 4.64363134 -1.39351421 6.31050386 -2 8 C-2.66 7.67 -3.32 7.34 -4 7 C-3.43628586 3.73045798 -2.50037734 2.17424117 0 0 Z " fill="#242424" transform="translate(58,95)"/>
<path d="M0 0 C2.31 0 4.62 0 7 0 C7 0.66 7 1.32 7 2 C7.99 2.33 8.98 2.66 10 3 C3.47692308 3.36923077 3.47692308 3.36923077 1.0625 1.5 C0.5365625 0.7575 0.5365625 0.7575 0 0 Z " fill="#393939" transform="translate(82,61)"/>
</svg>
